<svg width="358" height="242" viewBox="0 0 358 242" fill="none" xmlns="http://www.w3.org/2000/svg">
<rect y="88" width="9" height="358" transform="rotate(-90 0 88)" fill="#D9D9D9"/>
<rect y="242" width="9" height="358" transform="rotate(-90 0 242)" fill="#D9D9D9"/>
<rect x="349" width="9" height="242" fill="#D9D9D9"/>
<rect width="9" height="242" fill="#D9D9D9"/>
<rect y="9" width="9" height="358" transform="rotate(-90 0 9)" fill="#D9D9D9"/>
<rect x="299" y="9" width="9" height="224" fill="#D9D9D9"/>
<rect x="275" y="9" width="57" height="24" rx="12" fill="#202020"/>
<rect x="275" y="185" width="57" height="24" rx="12" fill="#202020"/>
<rect x="275" y="136" width="57" height="25" rx="12.5" fill="#202020"/>
<rect x="275" y="112" width="57" height="24" rx="12" fill="#202020"/>
<rect x="275" y="33" width="57" height="24" rx="12" fill="#202020"/>
<rect x="275" y="209" width="57" height="24" rx="12" fill="#202020"/>
<rect x="275" y="161" width="57" height="24" rx="12" fill="#202020"/>
<rect x="216" y="9" width="9" height="224" fill="#D9D9D9"/>
<rect x="192" y="9" width="57" height="24" rx="12" fill="#202020"/>
<rect x="192" y="185" width="57" height="24" rx="12" fill="#202020"/>
<rect x="192" y="136" width="57" height="25" rx="12.5" fill="#202020"/>
<rect x="192" y="112" width="57" height="24" rx="12" fill="#202020"/>
<rect x="192" y="33" width="57" height="24" rx="12" fill="#202020"/>
<rect x="192" y="209" width="57" height="24" rx="12" fill="#202020"/>
<rect x="192" y="161" width="57" height="24" rx="12" fill="#202020"/>
<rect x="133" y="9" width="9" height="224" fill="#D9D9D9"/>
<rect x="109" y="9" width="57" height="24" rx="12" fill="#202020"/>
<rect x="109" y="185" width="57" height="24" rx="12" fill="#202020"/>
<rect x="109" y="136" width="57" height="25" rx="12.5" fill="#202020"/>
<rect x="109" y="112" width="57" height="24" rx="12" fill="#202020"/>
<rect x="109" y="33" width="57" height="24" rx="12" fill="#202020"/>
<rect x="109" y="209" width="57" height="24" rx="12" fill="#202020"/>
<rect x="109" y="161" width="57" height="24" rx="12" fill="#202020"/>
<rect x="50" y="9" width="9" height="224" fill="#D9D9D9"/>
<rect x="26" y="9" width="57" height="24" rx="12" fill="#202020"/>
<rect x="26" y="185" width="57" height="24" rx="12" fill="#202020"/>
<rect x="26" y="136" width="57" height="25" rx="12.5" fill="#202020"/>
<rect x="26" y="112" width="57" height="24" rx="12" fill="#202020"/>
<rect x="26" y="33" width="57" height="24" rx="12" fill="#202020"/>
<rect x="26" y="209" width="57" height="24" rx="12" fill="#202020"/>
<rect x="26" y="161" width="57" height="24" rx="12" fill="#202020"/>
</svg>
