<svg width="73" height="76" viewBox="0 0 73 76" fill="none" xmlns="http://www.w3.org/2000/svg">
<path d="M14.737 67.3615C14.25 68.0317 14.3986 68.9697 15.0688 69.4567C15.739 69.9436 16.6771 69.795 17.164 69.1248L14.737 67.3615ZM57.6453 8.30323L14.737 67.3615L17.164 69.1248L60.0724 10.0666L57.6453 8.30323Z" fill="black"/>
<path d="M56.6496 69.7776C57.1188 70.4603 58.0527 70.6334 58.7354 70.1641C59.4181 69.6949 59.5912 68.7611 59.122 68.0783L56.6496 69.7776ZM14.6825 8.71503L56.6496 69.7776L59.122 68.0783L17.1549 7.01581L14.6825 8.71503Z" fill="black"/>
<path d="M71.8911 29.0521C72.679 28.7961 73.1102 27.9499 72.8542 27.162C72.5982 26.3741 71.752 25.9429 70.9641 26.1989L71.8911 29.0521ZM2.46401 51.6103L71.8911 29.0521L70.9641 26.1989L1.53696 48.7572L2.46401 51.6103Z" fill="black"/>
<path d="M38.2141 2.40463C38.2141 1.5762 37.5425 0.904629 36.7141 0.904629C35.8856 0.904629 35.2141 1.5762 35.2141 2.40463H38.2141ZM38.2141 75.4046L38.2141 2.40463H35.2141L35.2141 75.4046H38.2141Z" fill="black"/>
<path d="M2.65463 25.5083C1.86675 25.2523 1.02052 25.6835 0.764522 26.4714C0.508523 27.2592 0.9397 28.1055 1.72758 28.3615L2.65463 25.5083ZM72.0818 48.0665L2.65463 25.5083L1.72758 28.3615L71.1547 50.9197L72.0818 48.0665Z" fill="black"/>
<circle cx="37" cy="40" r="21" fill="#D9D9D9"/>
<rect x="32" y="34" width="10" height="10" rx="5" fill="black"/>
</svg>
