<svg width="85" height="101" viewBox="0 0 85 101" fill="none" xmlns="http://www.w3.org/2000/svg">
<circle cx="42.5" cy="42.5" r="39" fill="#3E3E3E" stroke="black" stroke-width="7"/>
<path d="M40.5 96C40.5 96.8284 41.1716 97.5 42 97.5C42.8284 97.5 43.5 96.8284 43.5 96H40.5ZM40.5 47V96H43.5V47H40.5Z" fill="black"/>
<circle cx="17" cy="96" r="5" fill="black"/>
<circle cx="67" cy="96" r="5" fill="black"/>
<rect x="18" y="95" width="48" height="3" fill="black"/>
<path d="M19.5257 72.3636L19.5301 76H19.0897L19.0859 72.8253H19.0646L18.1775 73.4148L18.177 72.9673L19.0853 72.3636H19.5257Z" fill="white"/>
<path d="M4.32397 55L4.32295 54.6804L5.51903 53.3665C5.6594 53.2126 5.77498 53.0788 5.86576 52.9652C5.95654 52.8504 6.02367 52.7427 6.06714 52.642C6.1118 52.5402 6.13395 52.4337 6.13359 52.3224C6.13318 52.1946 6.10205 52.0839 6.0402 51.9904C5.97953 51.8969 5.89644 51.8247 5.79093 51.7738C5.68542 51.7229 5.56696 51.6974 5.43557 51.6974C5.29589 51.6974 5.17406 51.7264 5.07008 51.7844C4.96728 51.8413 4.88764 51.9212 4.83115 52.0241C4.77584 52.1271 4.74841 52.2479 4.74885 52.3864H4.32982C4.32914 52.1733 4.37767 51.9863 4.4754 51.8253C4.57313 51.6643 4.70649 51.5388 4.87547 51.4489C5.04564 51.3589 5.23667 51.3139 5.44855 51.3139C5.66162 51.3139 5.85057 51.3589 6.01539 51.4489C6.18021 51.5388 6.30962 51.6602 6.40363 51.8129C6.49763 51.9655 6.54493 52.1354 6.54552 52.3224C6.54595 52.4562 6.5221 52.587 6.47398 52.7148C6.42704 52.8415 6.34463 52.9829 6.22676 53.1392C6.11006 53.2943 5.94791 53.4837 5.74029 53.7074L4.92632 54.5809L4.92641 54.6094H6.61675L6.618 55H4.32397Z" fill="white"/>
<path d="M5.46398 31.0497C5.2296 31.0497 5.0207 31.0095 4.83727 30.929C4.65503 30.8485 4.51009 30.7366 4.40246 30.5934C4.29602 30.449 4.23812 30.2815 4.22877 30.0909H4.67621C4.68561 30.2081 4.72579 30.3093 4.79676 30.3945C4.86773 30.4786 4.96061 30.5437 5.07541 30.5898C5.1902 30.636 5.31743 30.6591 5.45711 30.6591C5.61336 30.6591 5.75187 30.6319 5.87264 30.5774C5.99342 30.523 6.08816 30.4472 6.15687 30.3501C6.22559 30.2531 6.25998 30.1406 6.26006 30.0128C6.26014 29.879 6.22707 29.7612 6.16085 29.6594C6.09462 29.5565 5.99761 29.476 5.8698 29.418C5.742 29.36 5.58576 29.331 5.4011 29.331H5.10991L5.11015 28.9403H5.40134C5.54576 28.9403 5.67243 28.9143 5.78136 28.8622C5.89148 28.8101 5.97734 28.7367 6.03895 28.642C6.10175 28.5473 6.13318 28.4361 6.13326 28.3082C6.13334 28.1851 6.10618 28.078 6.05178 27.9869C5.99739 27.8957 5.92049 27.8247 5.82109 27.7738C5.72287 27.7229 5.60688 27.6974 5.47312 27.6974C5.34765 27.6974 5.22927 27.7205 5.11797 27.7667C5.00786 27.8117 4.91785 27.8774 4.84796 27.9638C4.77807 28.049 4.74013 28.152 4.73414 28.2727H4.308C4.31522 28.0821 4.37273 27.9152 4.48054 27.772C4.58834 27.6276 4.72927 27.5152 4.90333 27.4347C5.07857 27.3542 5.27094 27.3139 5.48046 27.3139C5.70537 27.3139 5.89828 27.3595 6.05921 27.4506C6.22014 27.5406 6.34377 27.6596 6.43009 27.8075C6.51641 27.9555 6.55952 28.1153 6.55941 28.2869C6.55929 28.4917 6.50532 28.6663 6.39752 28.8107C6.29089 28.9551 6.14583 29.0552 5.96232 29.1108L5.9623 29.1392C6.19192 29.1771 6.37119 29.2747 6.50012 29.4322C6.62905 29.5884 6.69344 29.782 6.6933 30.0128C6.69318 30.2105 6.63921 30.388 6.5314 30.5455C6.42477 30.7017 6.2791 30.8248 6.09438 30.9148C5.90967 31.0047 5.69953 31.0497 5.46398 31.0497Z" fill="white"/>
<path d="M19.1404 11.2542L19.1416 10.892L20.7479 8.36363H21.0107L21.0089 8.92471H20.8313L19.6176 10.8352L19.6175 10.8636H21.7695L21.7682 11.2542H19.1404ZM20.8495 12L20.8524 11.1442L20.8529 10.9755L20.8616 8.36363H21.2806L21.2686 12H20.8495Z" fill="white"/>
<path d="M42.0431 5.04972C41.8347 5.04972 41.6471 5.00829 41.4802 4.92543C41.3133 4.84257 41.1796 4.72893 41.0789 4.58452C40.9783 4.4401 40.9233 4.27557 40.9138 4.09091H41.3399C41.3565 4.25545 41.4311 4.39157 41.5637 4.49929C41.6974 4.60582 41.8572 4.65909 42.0431 4.65909C42.1922 4.65909 42.3248 4.62417 42.4408 4.55433C42.558 4.48449 42.6497 4.38861 42.716 4.26669C42.7835 4.14358 42.8172 4.0045 42.8172 3.84943C42.8172 3.69081 42.7823 3.54936 42.7125 3.42507C42.6438 3.2996 42.5491 3.20076 42.4284 3.12855C42.3076 3.05634 42.1697 3.01965 42.0147 3.01847C41.9034 3.01728 41.7892 3.03445 41.672 3.06996C41.5548 3.10428 41.4583 3.14867 41.3826 3.20313L40.9706 3.15341L41.1908 1.36364L43.08 1.36364V1.75426L41.5601 1.75426L41.4323 2.8267H41.4536C41.5282 2.76752 41.6217 2.71839 41.7341 2.67933C41.8466 2.64027 41.9638 2.62074 42.0857 2.62074C42.3082 2.62074 42.5065 2.67401 42.6805 2.78054C42.8557 2.88589 42.993 3.0303 43.0924 3.21378C43.193 3.39725 43.2434 3.60677 43.2434 3.84233C43.2434 4.07434 43.1913 4.28149 43.0871 4.46378C42.9841 4.64489 42.8421 4.78812 42.661 4.89347C42.4799 4.99763 42.2739 5.04972 42.0431 5.04972Z" fill="white"/>
<path d="M64.4847 12.0497C64.3355 12.0473 64.1863 12.0189 64.0369 11.9645C63.8876 11.91 63.7512 11.8183 63.6277 11.6893C63.5041 11.559 63.4047 11.3833 63.3294 11.1619C63.2541 10.9394 63.2159 10.66 63.2148 10.3239C63.2137 10.0019 63.2429 9.71661 63.3025 9.46803C63.362 9.21827 63.4489 9.00816 63.5632 8.83771C63.6774 8.66607 63.8155 8.53586 63.9774 8.44709C64.1404 8.35831 64.3243 8.31392 64.5291 8.31392C64.7327 8.31392 64.914 8.35476 65.0729 8.43643C65.2329 8.51692 65.3635 8.62938 65.4646 8.77379C65.5657 8.9182 65.6313 9.08451 65.6616 9.27272H65.2283C65.1875 9.10937 65.109 8.97383 64.9926 8.86612C64.8762 8.7584 64.7222 8.70454 64.5304 8.70454C64.2487 8.70454 64.0272 8.82706 63.8658 9.07208C63.7056 9.31711 63.6257 9.66098 63.626 10.1037H63.6544C63.7203 10.0031 63.7988 9.91725 63.8897 9.84623C63.9818 9.77402 64.0834 9.71839 64.1945 9.67932C64.3057 9.64026 64.4234 9.62073 64.5477 9.62073C64.756 9.62073 64.9467 9.67281 65.1199 9.77698C65.2931 9.87996 65.432 10.0226 65.5368 10.2049C65.6416 10.386 65.6943 10.5937 65.6951 10.8281C65.6959 11.053 65.6462 11.259 65.5462 11.446C65.4462 11.6318 65.3053 11.7798 65.1233 11.8899C64.9426 11.9988 64.7297 12.0521 64.4847 12.0497ZM64.4834 11.6591C64.6325 11.6591 64.7662 11.6218 64.8843 11.5472C65.0036 11.4726 65.0974 11.3726 65.1656 11.2471C65.235 11.1217 65.2695 10.982 65.269 10.8281C65.2685 10.6778 65.2343 10.5411 65.1664 10.418C65.0997 10.2937 65.0077 10.1948 64.8902 10.1214C64.774 10.048 64.6413 10.0114 64.4921 10.0114C64.3797 10.0114 64.275 10.0338 64.1781 10.0788C64.0812 10.1226 63.9961 10.183 63.923 10.2599C63.851 10.3369 63.7945 10.4251 63.7534 10.5245C63.7123 10.6227 63.6919 10.7263 63.6923 10.8352C63.6928 10.9796 63.727 11.1146 63.7948 11.24C63.8639 11.3655 63.9578 11.4667 64.0764 11.5437C64.1962 11.6206 64.3319 11.6591 64.4834 11.6591Z" fill="white"/>
<path d="M78.3072 32L79.9317 28.7827L79.9317 28.7543H78.0567L78.0564 28.3636H80.386L80.3862 28.7756L78.7689 32H78.3072Z" fill="white"/>
<path d="M79.452 55.0497C79.2082 55.0497 78.9929 55.0065 78.8061 54.9201C78.6205 54.8325 78.4759 54.7123 78.3722 54.5596C78.2686 54.4058 78.2176 54.2306 78.2194 54.0341C78.2188 53.8802 78.2494 53.7381 78.3114 53.6079C78.3733 53.4765 78.4577 53.3671 78.5645 53.2795C78.6725 53.1907 78.7929 53.1345 78.9255 53.1108L78.9256 53.0895C78.7517 53.0445 78.6135 52.9468 78.511 52.7965C78.4085 52.645 78.3582 52.4728 78.36 52.2798C78.3594 52.0952 78.4067 51.93 78.5019 51.7844C78.597 51.6388 78.7276 51.524 78.8936 51.44C79.0607 51.3559 79.2509 51.3139 79.4639 51.3139C79.6746 51.3139 79.8627 51.3559 80.0282 51.44C80.1936 51.524 80.3235 51.6388 80.4177 51.7844C80.5131 51.93 80.5611 52.0952 80.5617 52.2798C80.5599 52.4728 80.5067 52.645 80.402 52.7965C80.2986 52.9468 80.1615 53.0445 79.9909 53.0895L79.9909 53.1108C80.1222 53.1345 80.2404 53.1907 80.3454 53.2795C80.4505 53.3671 80.5342 53.4765 80.5965 53.6079C80.6588 53.7381 80.6903 53.8802 80.691 54.0341C80.6892 54.2306 80.6354 54.4058 80.5296 54.5596C80.4249 54.7123 80.2795 54.8325 80.0934 54.9201C79.9085 55.0065 79.6947 55.0497 79.452 55.0497ZM79.4532 54.6591C79.6178 54.6591 79.7599 54.6324 79.8796 54.5792C79.9994 54.5259 80.0919 54.4507 80.1573 54.3537C80.2228 54.2566 80.2563 54.143 80.2579 54.0128C80.2571 53.8755 80.222 53.7541 80.1525 53.6488C80.083 53.5434 79.988 53.4606 79.8674 53.4002C79.7481 53.3398 79.6114 53.3096 79.4576 53.3096C79.3025 53.3096 79.1639 53.3398 79.0418 53.4002C78.9209 53.4606 78.8253 53.5434 78.7551 53.6488C78.6861 53.7541 78.652 53.8755 78.6528 54.0128C78.6512 54.143 78.6822 54.2566 78.7458 54.3537C78.8106 54.4507 78.9032 54.5259 79.0238 54.5792C79.1444 54.6324 79.2875 54.6591 79.4532 54.6591ZM79.4588 52.9332C79.589 52.9332 79.7045 52.9072 79.8052 52.8551C79.9072 52.803 79.9873 52.7302 80.0456 52.6367C80.1039 52.5432 80.1339 52.4337 80.1355 52.3082C80.1347 52.1851 80.106 52.078 80.0495 51.9869C79.993 51.8945 79.9145 51.8235 79.814 51.7738C79.7136 51.7229 79.5965 51.6974 79.4627 51.6974C79.3266 51.6974 79.2075 51.7229 79.1056 51.7738C79.0036 51.8235 78.9247 51.8945 78.8687 51.9869C78.8128 52.078 78.7853 52.1851 78.786 52.3082C78.7845 52.4337 78.8119 52.5432 78.8684 52.6367C78.9261 52.7302 79.0058 52.803 79.1074 52.8551C79.2091 52.9072 79.3262 52.9332 79.4588 52.9332Z" fill="white"/>
<path d="M64.4251 73.3139C64.5743 73.3151 64.7234 73.3435 64.8725 73.3991C65.0216 73.4548 65.1576 73.5471 65.2805 73.6761C65.4035 73.804 65.5021 73.9786 65.5764 74.1999C65.6507 74.4213 65.6877 74.6989 65.6873 75.0327C65.6869 75.3558 65.6558 75.6429 65.5939 75.8938C65.5333 76.1436 65.4454 76.3543 65.3304 76.5259C65.2165 76.6976 65.0779 76.8278 64.9144 76.9165C64.7521 77.0053 64.5686 77.0497 64.3638 77.0497C64.1602 77.0497 63.9786 77.0095 63.8189 76.929C63.6604 76.8473 63.5303 76.7343 63.4287 76.5898C63.3282 76.4442 63.2639 76.2756 63.2357 76.0838H63.669C63.7078 76.2507 63.7852 76.3886 63.9011 76.4975C64.0181 76.6052 64.1725 76.6591 64.3643 76.6591C64.6448 76.6591 64.8663 76.5366 65.0288 76.2915C65.1925 76.0465 65.2745 75.7003 65.2751 75.2528H65.2467C65.1803 75.3523 65.1015 75.4381 65.0102 75.5103C64.919 75.5825 64.8177 75.6381 64.7064 75.6772C64.5951 75.7163 64.4767 75.7358 64.3512 75.7358C64.1429 75.7358 63.9518 75.6843 63.7779 75.5813C63.6052 75.4772 63.4669 75.3345 63.3629 75.1534C63.2602 74.9711 63.2089 74.7628 63.2092 74.5284C63.2095 74.3059 63.2594 74.1023 63.3591 73.9176C63.4599 73.7318 63.601 73.5838 63.7822 73.4737C63.9646 73.3636 64.1789 73.3104 64.4251 73.3139ZM64.4247 73.7045C64.2755 73.7045 64.1411 73.7418 64.0215 73.8164C63.903 73.8898 63.8088 73.9892 63.7388 74.1147C63.67 74.239 63.6355 74.3769 63.6353 74.5284C63.6351 74.6799 63.6681 74.8178 63.7343 74.9421C63.8016 75.0652 63.8932 75.1635 64.0091 75.2369C64.1262 75.3091 64.2594 75.3452 64.4085 75.3452C64.521 75.3452 64.6257 75.3233 64.7229 75.2795C64.82 75.2345 64.9047 75.1735 64.977 75.0966C65.0505 75.0185 65.108 74.9303 65.1495 74.832C65.1911 74.7326 65.2119 74.629 65.212 74.5213C65.2122 74.3793 65.178 74.2461 65.1095 74.1218C65.0422 73.9975 64.9488 73.8969 64.8294 73.82C64.7111 73.743 64.5762 73.7045 64.4247 73.7045Z" fill="white"/>
</svg>
