<svg width="86" height="86" viewBox="0 0 86 86" fill="none" xmlns="http://www.w3.org/2000/svg">
<circle cx="43" cy="43" r="43" fill="#202020"/>
<circle cx="43" cy="43" r="8" fill="#D9D9D9"/>
<path d="M67.7495 27.1588C67.2144 27.1588 66.7587 27.0132 66.3823 26.722C66.0059 26.4284 65.7182 26.0035 65.5194 25.4471C65.3205 24.8884 65.2211 24.2137 65.2211 23.423C65.2211 22.637 65.3205 21.9658 65.5194 21.4095C65.7206 20.8508 66.0094 20.4247 66.3858 20.1311C66.7646 19.8352 67.2192 19.6872 67.7495 19.6872C68.2798 19.6872 68.7331 19.8352 69.1096 20.1311C69.4883 20.4247 69.7772 20.8508 69.976 21.4095C70.1773 21.9658 70.2779 22.637 70.2779 23.423C70.2779 24.2137 70.1784 24.8884 69.9796 25.4471C69.7807 26.0035 69.4931 26.4284 69.1167 26.722C68.7402 27.0132 68.2845 27.1588 67.7495 27.1588ZM67.7495 26.3775C68.2798 26.3775 68.6917 26.1219 68.9853 25.6105C69.2788 25.0991 69.4256 24.37 69.4256 23.423C69.4256 22.7933 69.3581 22.257 69.2232 21.8143C69.0906 21.3716 68.8989 21.0343 68.6479 20.8023C68.3993 20.5702 68.0998 20.4542 67.7495 20.4542C67.2239 20.4542 66.8132 20.7135 66.5172 21.2319C66.2213 21.748 66.0733 22.4784 66.0733 23.423C66.0733 24.0527 66.1396 24.5878 66.2722 25.0281C66.4048 25.4684 66.5953 25.8034 66.8439 26.0331C67.0949 26.2627 67.3967 26.3775 67.7495 26.3775Z" fill="white"/>
<path d="M74.4616 33.6625V40.9352H73.5809V34.5858H73.5383L71.7627 35.7648V34.8699L73.5809 33.6625H74.4616Z" fill="white"/>
<path d="M69.6339 55.8642V55.225L72.0345 52.5972C72.3162 52.2894 72.5482 52.0219 72.7305 51.7946C72.9128 51.565 73.0477 51.3496 73.1353 51.1483C73.2253 50.9447 73.2703 50.7317 73.2703 50.5091C73.2703 50.2534 73.2087 50.0321 73.0856 49.8451C72.9649 49.658 72.7991 49.5136 72.5884 49.4118C72.3777 49.31 72.141 49.2591 71.8782 49.2591C71.5989 49.2591 71.355 49.3171 71.1467 49.4331C70.9407 49.5468 70.7809 49.7066 70.6673 49.9125C70.556 50.1185 70.5004 50.36 70.5004 50.637H69.6623C69.6623 50.2108 69.7606 49.8368 69.9571 49.5148C70.1535 49.1928 70.4211 48.9419 70.7596 48.762C71.1005 48.582 71.4829 48.4921 71.9066 48.4921C72.3328 48.4921 72.7104 48.582 73.0394 48.762C73.3685 48.9419 73.6266 49.1846 73.8136 49.49C74.0006 49.7954 74.0941 50.1351 74.0941 50.5091C74.0941 50.7766 74.0456 51.0382 73.9485 51.2939C73.8538 51.5472 73.6881 51.8302 73.4514 52.1427C73.217 52.4528 72.8915 52.8316 72.4748 53.279L70.8413 55.0262V55.083H74.222V55.8642H69.6339Z" fill="white"/>
<path d="M63.4508 68.3472C62.982 68.3472 62.5642 68.2667 62.1972 68.1057C61.8326 67.9447 61.5426 67.721 61.3272 67.4345C61.1141 67.1457 60.9981 66.8107 60.9792 66.4296H61.8741C61.893 66.664 61.9735 66.8664 62.1156 67.0368C62.2576 67.2049 62.4434 67.3351 62.6731 67.4274C62.9027 67.5198 63.1572 67.5659 63.4366 67.5659C63.7491 67.5659 64.0261 67.5115 64.2675 67.4026C64.509 67.2937 64.6984 67.1422 64.8357 66.948C64.973 66.7539 65.0417 66.529 65.0417 66.2733C65.0417 66.0058 64.9754 65.7702 64.8428 65.5666C64.7103 65.3607 64.5161 65.1997 64.2604 65.0837C64.0048 64.9677 63.6923 64.9097 63.3229 64.9097H62.7406V64.1284H63.3229C63.6118 64.1284 63.8651 64.0764 64.0829 63.9722C64.3031 63.868 64.4747 63.7212 64.5978 63.5318C64.7233 63.3425 64.786 63.1199 64.786 62.8642C64.786 62.618 64.7316 62.4038 64.6227 62.2215C64.5138 62.0392 64.3599 61.8971 64.161 61.7953C63.9645 61.6935 63.7325 61.6426 63.465 61.6426C63.214 61.6426 62.9773 61.6888 62.7548 61.7811C62.5346 61.8711 62.3547 62.0025 62.215 62.1753C62.0753 62.3458 61.9996 62.5517 61.9877 62.7932H61.1354C61.1496 62.4121 61.2645 62.0782 61.4799 61.7918C61.6953 61.503 61.9771 61.2781 62.3251 61.1171C62.6755 60.9561 63.0602 60.8756 63.4792 60.8756C63.929 60.8756 64.3149 60.9667 64.6369 61.149C64.9588 61.329 65.2062 61.5669 65.379 61.8628C65.5519 62.1587 65.6383 62.4783 65.6383 62.8216C65.6383 63.2312 65.5306 63.5804 65.3151 63.8692C65.1021 64.158 64.8121 64.3581 64.4451 64.4693V64.5262C64.9044 64.6019 65.263 64.7972 65.5211 65.1121C65.7791 65.4246 65.9082 65.8117 65.9082 66.2733C65.9082 66.6687 65.8005 67.0238 65.585 67.3387C65.3719 67.6512 65.0808 67.8974 64.7114 68.0773C64.3421 68.2572 63.9219 68.3472 63.4508 68.3472Z" fill="white"/>
<path d="M47.443 73.6093V72.8848L50.6391 67.828H51.1646V68.9502H50.8095L48.3947 72.7712V72.828H52.6987V73.6093H47.443ZM50.8663 75.1007V73.3891V73.0517V67.828H51.7044V75.1007H50.8663Z" fill="white"/>
<path d="M35.0447 74.8706C34.628 74.8706 34.2528 74.7878 33.919 74.622C33.5852 74.4563 33.3177 74.2291 33.1164 73.9402C32.9152 73.6514 32.8051 73.3223 32.7862 72.953H33.6384C33.6716 73.2821 33.8207 73.5543 34.0859 73.7698C34.3534 73.9828 34.673 74.0894 35.0447 74.0894C35.343 74.0894 35.6081 74.0195 35.8401 73.8799C36.0745 73.7402 36.258 73.5484 36.3906 73.3046C36.5255 73.0584 36.593 72.7802 36.593 72.4701C36.593 72.1528 36.5231 71.8699 36.3835 71.6213C36.2462 71.3704 36.0568 71.1727 35.8153 71.0283C35.5738 70.8839 35.298 70.8105 34.9879 70.8081C34.7653 70.8058 34.5369 70.8401 34.3025 70.9111C34.0681 70.9798 33.8752 71.0685 33.7237 71.1774L32.8998 71.078L33.3401 67.4985H37.1186V68.2797H34.0788L33.8231 70.4246H33.8657C34.0149 70.3062 34.2019 70.208 34.4268 70.1299C34.6517 70.0517 34.8861 70.0127 35.1299 70.0127C35.575 70.0127 35.9715 70.1192 36.3195 70.3323C36.6699 70.543 36.9445 70.8318 37.1434 71.1988C37.3446 71.5657 37.4453 71.9847 37.4453 72.4559C37.4453 72.9199 37.3411 73.3342 37.1328 73.6988C36.9268 74.061 36.6427 74.3474 36.2805 74.5581C35.9183 74.7665 35.5063 74.8706 35.0447 74.8706Z" fill="white"/>
<path d="M22.0668 67.438C21.7685 67.4333 21.4702 67.3765 21.1719 67.2676C20.8736 67.1587 20.6013 66.9752 20.3551 66.7171C20.1089 66.4567 19.9112 66.1051 19.7621 65.6624C19.6129 65.2174 19.5384 64.6587 19.5384 63.9863C19.5384 63.3424 19.5987 62.7718 19.7195 62.2747C19.8402 61.7751 20.0154 61.3549 20.245 61.014C20.4747 60.6707 20.7517 60.4103 21.076 60.2328C21.4027 60.0552 21.7708 59.9664 22.1804 59.9664C22.5876 59.9664 22.9498 60.0481 23.2671 60.2114C23.5867 60.3724 23.8471 60.5973 24.0483 60.8862C24.2495 61.175 24.3797 61.5076 24.4389 61.884H23.5725C23.492 61.5573 23.3357 61.2863 23.1037 61.0708C22.8717 60.8554 22.5639 60.7477 22.1804 60.7477C21.617 60.7477 21.1731 60.9927 20.8487 61.4828C20.5268 61.9728 20.3646 62.6605 20.3622 63.546H20.419C20.5516 63.3447 20.7091 63.1731 20.8913 63.031C21.076 62.8866 21.2796 62.7754 21.5021 62.6972C21.7247 62.6191 21.9602 62.5801 22.2088 62.5801C22.6255 62.5801 23.0066 62.6842 23.3523 62.8926C23.6979 63.0985 23.9749 63.3838 24.1832 63.7484C24.3916 64.1106 24.4957 64.5261 24.4957 64.9948C24.4957 65.4446 24.3951 65.8566 24.1939 66.2306C23.9927 66.6023 23.7098 66.8982 23.3452 67.1184C22.983 67.3362 22.5568 67.4427 22.0668 67.438ZM22.0668 66.6568C22.3651 66.6568 22.6326 66.5822 22.8693 66.433C23.1084 66.2839 23.2966 66.0838 23.434 65.8329C23.5736 65.5819 23.6435 65.3026 23.6435 64.9948C23.6435 64.6942 23.576 64.4207 23.4411 64.1745C23.3085 63.9259 23.125 63.7283 22.8906 63.5815C22.6586 63.4347 22.3935 63.3613 22.0952 63.3613C21.8703 63.3613 21.6608 63.4063 21.4666 63.4962C21.2725 63.5838 21.102 63.7046 20.9553 63.8585C20.8109 64.0123 20.6972 64.1887 20.6144 64.3876C20.5315 64.5841 20.4901 64.7912 20.4901 65.009C20.4901 65.2979 20.5575 65.5677 20.6925 65.8187C20.8298 66.0696 21.0168 66.2721 21.2536 66.4259C21.4927 66.5798 21.7637 66.6568 22.0668 66.6568Z" fill="white"/>
<path d="M12.2624 54.7543L15.5153 48.3197V48.2628H11.7653V47.4816H16.4244V48.3055L13.1857 54.7543H12.2624Z" fill="white"/>
<path d="M13.1773 39.7105C12.6896 39.7105 12.2587 39.6241 11.8846 39.4513C11.513 39.2761 11.2229 39.0358 11.0146 38.7304C10.8063 38.4227 10.7033 38.0723 10.7057 37.6793C10.7033 37.3715 10.7637 37.0874 10.8868 36.827C11.0099 36.5642 11.178 36.3452 11.391 36.17C11.6065 35.9925 11.8468 35.88 12.1119 35.8327V35.7901C11.7639 35.7001 11.4869 35.5048 11.2809 35.2041C11.075 34.9011 10.9732 34.5566 10.9755 34.1708C10.9732 33.8014 11.0667 33.4712 11.2561 33.18C11.4455 32.8888 11.7059 32.6592 12.0373 32.4911C12.3711 32.323 12.7511 32.2389 13.1773 32.2389C13.5987 32.2389 13.9751 32.323 14.3065 32.4911C14.638 32.6592 14.8984 32.8888 15.0878 33.18C15.2795 33.4712 15.3766 33.8014 15.379 34.1708C15.3766 34.5566 15.2712 34.9011 15.0629 35.2041C14.8569 35.5048 14.5835 35.7001 14.2426 35.7901V35.8327C14.5054 35.88 14.7421 35.9925 14.9528 36.17C15.1635 36.3452 15.3316 36.5642 15.4571 36.827C15.5826 37.0874 15.6465 37.3715 15.6488 37.6793C15.6465 38.0723 15.5399 38.4227 15.3292 38.7304C15.1209 39.0358 14.8309 39.2761 14.4592 39.4513C14.0899 39.6241 13.6626 39.7105 13.1773 39.7105ZM13.1773 38.9293C13.5063 38.9293 13.7904 38.876 14.0295 38.7695C14.2686 38.6629 14.4533 38.5126 14.5835 38.3185C14.7137 38.1244 14.78 37.8971 14.7824 37.6367C14.78 37.362 14.709 37.1194 14.5693 36.9087C14.4296 36.698 14.239 36.5323 13.9976 36.4115C13.7585 36.2908 13.485 36.2304 13.1773 36.2304C12.8671 36.2304 12.5901 36.2908 12.3463 36.4115C12.1048 36.5323 11.9142 36.698 11.7746 36.9087C11.6372 37.1194 11.5698 37.362 11.5721 37.6367C11.5698 37.8971 11.6325 38.1244 11.7603 38.3185C11.8906 38.5126 12.0764 38.6629 12.3179 38.7695C12.5594 38.876 12.8458 38.9293 13.1773 38.9293ZM13.1773 35.4776C13.4377 35.4776 13.6685 35.4255 13.8697 35.3213C14.0733 35.2172 14.2331 35.0716 14.3491 34.8845C14.4651 34.6975 14.5243 34.4785 14.5267 34.2276C14.5243 33.9814 14.4663 33.7671 14.3527 33.5848C14.239 33.4002 14.0816 33.2581 13.8804 33.1587C13.6791 33.0569 13.4448 33.006 13.1773 33.006C12.905 33.006 12.6671 33.0569 12.4635 33.1587C12.2599 33.2581 12.1024 33.4002 11.9912 33.5848C11.8799 33.7671 11.8255 33.9814 11.8278 34.2276C11.8255 34.4785 11.8811 34.6975 11.9947 34.8845C12.1107 35.0716 12.2705 35.2172 12.4741 35.3213C12.6777 35.4255 12.9121 35.4776 13.1773 35.4776Z" fill="white"/>
<path d="M19.4542 18.6278C19.7525 18.6302 20.0508 18.687 20.3491 18.7983C20.6474 18.9096 20.9197 19.0942 21.1659 19.3523C21.4121 19.608 21.6098 19.9571 21.7589 20.3999C21.9081 20.8426 21.9827 21.3977 21.9827 22.0653C21.9827 22.7116 21.9211 23.2857 21.798 23.7876C21.6773 24.2872 21.5021 24.7086 21.2724 25.0518C21.0452 25.3951 20.7682 25.6555 20.4415 25.8331C20.1171 26.0107 19.7502 26.0994 19.3406 26.0994C18.9334 26.0994 18.57 26.0189 18.2504 25.858C17.9332 25.6946 17.6728 25.4685 17.4692 25.1797C17.2679 24.8885 17.1389 24.5511 17.0821 24.1676H17.9486C18.0267 24.5014 18.1818 24.7772 18.4138 24.995C18.6481 25.2105 18.9571 25.3182 19.3406 25.3182C19.9017 25.3182 20.3444 25.0732 20.6687 24.5831C20.9954 24.093 21.1588 23.4006 21.1588 22.5057H21.102C20.9694 22.7045 20.812 22.8762 20.6297 23.0206C20.4474 23.165 20.245 23.2763 20.0224 23.3544C19.7999 23.4325 19.5631 23.4716 19.3122 23.4716C18.8955 23.4716 18.5132 23.3686 18.1652 23.1626C17.8195 22.9543 17.5425 22.669 17.3342 22.3068C17.1283 21.9422 17.0253 21.5256 17.0253 21.0568C17.0253 20.6117 17.1247 20.2045 17.3236 19.8352C17.5248 19.4635 17.8065 19.1676 18.1687 18.9474C18.5333 18.7273 18.9618 18.6207 19.4542 18.6278ZM19.4542 19.4091C19.1559 19.4091 18.8872 19.4837 18.6481 19.6328C18.4114 19.7796 18.2232 19.9785 18.0835 20.2294C17.9462 20.478 17.8775 20.7538 17.8775 21.0568C17.8775 21.3598 17.9438 21.6357 18.0764 21.8842C18.2113 22.1304 18.3948 22.3269 18.6268 22.4737C18.8612 22.6181 19.1275 22.6903 19.4258 22.6903C19.6507 22.6903 19.8603 22.6465 20.0544 22.5589C20.2485 22.469 20.4178 22.3471 20.5622 22.1932C20.709 22.0369 20.8238 21.8606 20.9067 21.6641C20.9895 21.4652 21.0309 21.258 21.0309 21.0426C21.0309 20.7585 20.9623 20.4922 20.825 20.2436C20.69 19.995 20.503 19.7938 20.2639 19.6399C20.0272 19.486 19.7573 19.4091 19.4542 19.4091Z" fill="white"/>
</svg>
