<svg width="144" height="144" viewBox="0 0 144 144" fill="none" xmlns="http://www.w3.org/2000/svg">
<circle cx="72" cy="72" r="72" fill="#202020"/>
<circle cx="72" cy="72" r="51" fill="white"/>
<circle cx="72" cy="72" r="34" fill="#202020"/>
<path d="M92.8032 58.949C92.4822 58.949 92.2088 58.8617 91.9829 58.6869C91.7571 58.5108 91.5845 58.2558 91.4652 57.922C91.3458 57.5868 91.2862 57.182 91.2862 56.7075C91.2862 56.2359 91.3458 55.8333 91.4652 55.4994C91.5859 55.1642 91.7592 54.9085 91.985 54.7324C92.2123 54.5548 92.485 54.4661 92.8032 54.4661C93.1214 54.4661 93.3934 54.5548 93.6193 54.7324C93.8466 54.9085 94.0198 55.1642 94.1392 55.4994C94.2599 55.8333 94.3203 56.2359 94.3203 56.7075C94.3203 57.182 94.2606 57.5868 94.1413 57.922C94.022 58.2558 93.8494 58.5108 93.6235 58.6869C93.3977 58.8617 93.1242 58.949 92.8032 58.949ZM92.8032 58.4803C93.1214 58.4803 93.3686 58.3269 93.5447 58.02C93.7208 57.7132 93.8089 57.2757 93.8089 56.7075C93.8089 56.3297 93.7684 56.008 93.6875 55.7423C93.6079 55.4767 93.4929 55.2743 93.3423 55.1351C93.1931 54.9959 93.0135 54.9263 92.8032 54.9263C92.4879 54.9263 92.2414 55.0818 92.0639 55.3929C91.8863 55.7026 91.7975 56.1408 91.7975 56.7075C91.7975 57.0854 91.8373 57.4064 91.9169 57.6706C91.9964 57.9348 92.1108 58.1358 92.2599 58.2736C92.4105 58.4114 92.5916 58.4803 92.8032 58.4803Z" fill="white"/>
<path d="M98.2022 66.1749V70.5385H97.6738V66.7289H97.6482L96.5829 67.4363V66.8993L97.6738 66.1749H98.2022Z" fill="white"/>
<path d="M94.9301 83.0719V82.6883L96.3704 81.1116C96.5394 80.927 96.6787 80.7665 96.788 80.6301C96.8974 80.4923 96.9784 80.3631 97.0309 80.2423C97.0849 80.1202 97.1119 79.9923 97.1119 79.8588C97.1119 79.7054 97.075 79.5726 97.0011 79.4604C96.9287 79.3481 96.8292 79.2615 96.7028 79.2004C96.5764 79.1393 96.4343 79.1088 96.2767 79.1088C96.109 79.1088 95.9627 79.1436 95.8377 79.2132C95.7142 79.2814 95.6183 79.3773 95.5501 79.5008C95.4833 79.6244 95.45 79.7693 95.45 79.9355H94.9471C94.9471 79.6798 95.0061 79.4554 95.124 79.2622C95.2419 79.069 95.4024 78.9185 95.6055 78.8105C95.81 78.7026 96.0394 78.6486 96.2937 78.6486C96.5494 78.6486 96.776 78.7026 96.9734 78.8105C97.1708 78.9185 97.3257 79.0641 97.4379 79.2473C97.5501 79.4305 97.6062 79.6344 97.6062 79.8588C97.6062 80.0193 97.5771 80.1763 97.5188 80.3297C97.462 80.4817 97.3626 80.6514 97.2206 80.8389C97.0799 81.025 96.8846 81.2523 96.6346 81.5207L95.6545 82.569V82.6031H97.6829V83.0719H94.9301Z" fill="white"/>
<path d="M89.188 93.5278C88.9067 93.5278 88.656 93.4795 88.4359 93.3829C88.2171 93.2864 88.0431 93.1521 87.9138 92.9802C87.786 92.8069 87.7164 92.606 87.705 92.3773H88.242C88.2533 92.5179 88.3016 92.6393 88.3868 92.7416C88.4721 92.8425 88.5836 92.9206 88.7214 92.976C88.8591 93.0314 89.0118 93.0591 89.1795 93.0591C89.367 93.0591 89.5332 93.0264 89.678 92.9611C89.8229 92.8957 89.9366 92.8048 90.0189 92.6883C90.1013 92.5719 90.1425 92.4369 90.1425 92.2835C90.1425 92.123 90.1028 91.9817 90.0232 91.8595C89.9437 91.7359 89.8272 91.6393 89.6738 91.5697C89.5204 91.5001 89.3329 91.4653 89.1113 91.4653H88.7618V90.9966H89.1113C89.2846 90.9966 89.4366 90.9653 89.5672 90.9028C89.6993 90.8403 89.8023 90.7523 89.8762 90.6386C89.9515 90.525 89.9891 90.3915 89.9891 90.2381C89.9891 90.0903 89.9564 89.9618 89.8911 89.8524C89.8258 89.743 89.7334 89.6578 89.6141 89.5967C89.4962 89.5356 89.357 89.5051 89.1965 89.5051C89.0459 89.5051 88.9039 89.5328 88.7704 89.5882C88.6383 89.6422 88.5303 89.721 88.4465 89.8247C88.3627 89.927 88.3172 90.0506 88.3101 90.1954H87.7988C87.8073 89.9667 87.8762 89.7665 88.0055 89.5946C88.1347 89.4213 88.3037 89.2864 88.5126 89.1898C88.7228 89.0932 88.9536 89.0449 89.205 89.0449C89.4749 89.0449 89.7064 89.0996 89.8996 89.2089C90.0928 89.3169 90.2412 89.4596 90.3449 89.6372C90.4486 89.8148 90.5005 90.0065 90.5005 90.2125C90.5005 90.4582 90.4359 90.6677 90.3066 90.841C90.1787 91.0143 90.0047 91.1344 89.7846 91.2011V91.2352C90.0601 91.2807 90.2753 91.3979 90.4302 91.5868C90.585 91.7743 90.6624 92.0065 90.6624 92.2835C90.6624 92.5207 90.5978 92.7338 90.4685 92.9227C90.3407 93.1102 90.166 93.2579 89.9444 93.3659C89.7228 93.4739 89.4707 93.5278 89.188 93.5278Z" fill="white"/>
<path d="M76.3843 98.3265V97.8919L78.3019 94.8578H78.6173V95.5311H78.4042L76.9553 97.8237V97.8578H79.5377V98.3265H76.3843ZM78.4383 99.2214V98.1944V97.992V94.8578H78.9411V99.2214H78.4383Z" fill="white"/>
<path d="M65.3506 99.0044C65.1006 99.0044 64.8755 98.9547 64.6752 98.8553C64.4749 98.7559 64.3144 98.6195 64.1936 98.4462C64.0729 98.2729 64.0068 98.0755 63.9955 97.8539H64.5068C64.5267 98.0513 64.6162 98.2147 64.7753 98.3439C64.9358 98.4718 65.1276 98.5357 65.3506 98.5357C65.5296 98.5357 65.6887 98.4938 65.8279 98.41C65.9685 98.3262 66.0786 98.2111 66.1581 98.0648C66.2391 97.9171 66.2796 97.7502 66.2796 97.5641C66.2796 97.3737 66.2377 97.204 66.1539 97.0549C66.0715 96.9043 65.9578 96.7857 65.813 96.699C65.6681 96.6124 65.5026 96.5684 65.3165 96.5669C65.183 96.5655 65.0459 96.5861 64.9053 96.6287C64.7647 96.6699 64.6489 96.7232 64.558 96.7885L64.0637 96.7289L64.3279 94.5811H66.5949V95.0499H64.771L64.6176 96.3368H64.6432C64.7327 96.2658 64.8449 96.2068 64.9799 96.16C65.1148 96.1131 65.2554 96.0897 65.4017 96.0897C65.6688 96.0897 65.9067 96.1536 66.1155 96.2814C66.3257 96.4078 66.4905 96.5811 66.6098 96.8013C66.7306 97.0215 66.7909 97.2729 66.7909 97.5556C66.7909 97.834 66.7284 98.0826 66.6034 98.3013C66.4799 98.5186 66.3094 98.6905 66.0921 98.8169C65.8747 98.9419 65.6276 99.0044 65.3506 99.0044Z" fill="white"/>
<path d="M54.44 92.7645C54.261 92.7617 54.082 92.7276 53.903 92.6623C53.724 92.5969 53.5607 92.4868 53.413 92.332C53.2652 92.1758 53.1466 91.9648 53.0571 91.6992C52.9677 91.4322 52.9229 91.0969 52.9229 90.6935C52.9229 90.3072 52.9591 89.9648 53.0316 89.6665C53.104 89.3668 53.2091 89.1147 53.3469 88.9101C53.4847 88.7042 53.6509 88.5479 53.8455 88.4414C54.0415 88.3349 54.2624 88.2816 54.5081 88.2816C54.7525 88.2816 54.9698 88.3306 55.1601 88.4286C55.3519 88.5252 55.5081 88.6601 55.6289 88.8334C55.7496 89.0067 55.8277 89.2063 55.8633 89.4322H55.3434C55.2951 89.2361 55.2013 89.0735 55.0621 88.9442C54.9229 88.815 54.7383 88.7503 54.5081 88.7503C54.1701 88.7503 53.9037 88.8974 53.7091 89.1914C53.5159 89.4854 53.4186 89.8981 53.4172 90.4293H53.4513C53.5309 90.3086 53.6253 90.2056 53.7347 90.1204C53.8455 90.0337 53.9677 89.967 54.1012 89.9201C54.2347 89.8732 54.376 89.8498 54.5252 89.8498C54.7752 89.8498 55.0039 89.9123 55.2113 90.0373C55.4186 90.1608 55.5848 90.332 55.7098 90.5508C55.8348 90.7681 55.8973 91.0174 55.8973 91.2986C55.8973 91.5685 55.837 91.8157 55.7162 92.0401C55.5955 92.2631 55.4258 92.4407 55.207 92.5728C54.9897 92.7035 54.734 92.7674 54.44 92.7645ZM54.44 92.2958C54.6189 92.2958 54.7794 92.251 54.9215 92.1616C55.065 92.0721 55.1779 91.952 55.2603 91.8015C55.3441 91.6509 55.386 91.4833 55.386 91.2986C55.386 91.1182 55.3455 90.9542 55.2645 90.8064C55.185 90.6573 55.0749 90.5387 54.9343 90.4506C54.7951 90.3626 54.636 90.3185 54.457 90.3185C54.3221 90.3185 54.1963 90.3455 54.0799 90.3995C53.9634 90.452 53.8611 90.5245 53.7731 90.6168C53.6864 90.7091 53.6182 90.815 53.5685 90.9343C53.5188 91.0522 53.4939 91.1765 53.4939 91.3072C53.4939 91.4804 53.5344 91.6424 53.6154 91.7929C53.6978 91.9435 53.81 92.065 53.952 92.1573C54.0955 92.2496 54.2581 92.2958 54.44 92.2958Z" fill="white"/>
<path d="M46.6698 82.14L48.6215 78.2792V78.2452H46.3715V77.7764H49.1669V78.2707L47.2237 82.14H46.6698Z" fill="white"/>
<path d="M46.988 69.4865C46.6954 69.4865 46.4369 69.4347 46.2124 69.331C45.9894 69.2259 45.8154 69.0817 45.6904 68.8985C45.5654 68.7138 45.5036 68.5036 45.5051 68.2678C45.5036 68.0831 45.5399 67.9127 45.6137 67.7564C45.6876 67.5988 45.7884 67.4674 45.9163 67.3623C46.0455 67.2557 46.1897 67.1883 46.3488 67.1598V67.1343C46.14 67.0803 45.9738 66.9631 45.8502 66.7827C45.7267 66.6009 45.6656 66.3942 45.667 66.1627C45.6656 65.9411 45.7217 65.7429 45.8353 65.5682C45.949 65.3935 46.1052 65.2557 46.3041 65.1549C46.5044 65.054 46.7323 65.0036 46.988 65.0036C47.2409 65.0036 47.4667 65.054 47.6656 65.1549C47.8644 65.2557 48.0207 65.3935 48.1343 65.5682C48.2494 65.7429 48.3076 65.9411 48.309 66.1627C48.3076 66.3942 48.2444 66.6009 48.1194 66.7827C47.9958 66.9631 47.8318 67.0803 47.6272 67.1343V67.1598C47.7849 67.1883 47.9269 67.2557 48.0534 67.3623C48.1798 67.4674 48.2806 67.5988 48.3559 67.7564C48.4312 67.9127 48.4695 68.0831 48.471 68.2678C48.4695 68.5036 48.4056 68.7138 48.2792 68.8985C48.1542 69.0817 47.9802 69.2259 47.7572 69.331C47.5356 69.4347 47.2792 69.4865 46.988 69.4865ZM46.988 69.0178C47.1855 69.0178 47.3559 68.9858 47.4994 68.9219C47.6428 68.858 47.7536 68.7678 47.8318 68.6513C47.9099 68.5348 47.9497 68.3985 47.9511 68.2422C47.9497 68.0775 47.907 67.9319 47.8232 67.8054C47.7394 67.679 47.6251 67.5796 47.4802 67.5071C47.3367 67.4347 47.1727 67.3985 46.988 67.3985C46.8019 67.3985 46.6357 67.4347 46.4894 67.5071C46.3445 67.5796 46.2302 67.679 46.1464 67.8054C46.064 67.9319 46.0235 68.0775 46.0249 68.2422C46.0235 68.3985 46.0612 68.5348 46.1379 68.6513C46.216 68.7678 46.3275 68.858 46.4724 68.9219C46.6173 68.9858 46.7892 69.0178 46.988 69.0178ZM46.988 66.9468C47.1443 66.9468 47.2828 66.9155 47.4035 66.853C47.5257 66.7905 47.6215 66.7032 47.6911 66.591C47.7607 66.4787 47.7963 66.3473 47.7977 66.1968C47.7963 66.049 47.7615 65.9205 47.6933 65.8111C47.6251 65.7003 47.5306 65.6151 47.4099 65.5554C47.2892 65.4944 47.1485 65.4638 46.988 65.4638C46.8247 65.4638 46.6819 65.4944 46.5597 65.5554C46.4376 65.6151 46.3431 65.7003 46.2764 65.8111C46.2096 65.9205 46.1769 66.049 46.1784 66.1968C46.1769 66.3473 46.2103 66.4787 46.2785 66.591C46.3481 66.7032 46.444 66.7905 46.5661 66.853C46.6883 66.9155 46.8289 66.9468 46.988 66.9468Z" fill="white"/>
<path d="M52.2705 53.5767C52.4495 53.5781 52.6284 53.6122 52.8074 53.679C52.9864 53.7457 53.1497 53.8565 53.2975 54.0114C53.4452 54.1648 53.5638 54.3743 53.6533 54.6399C53.7428 54.9055 53.7875 55.2386 53.7875 55.6392C53.7875 56.027 53.7506 56.3714 53.6767 56.6726C53.6043 56.9723 53.4992 57.2251 53.3614 57.4311C53.225 57.6371 53.0588 57.7933 52.8628 57.8999C52.6682 58.0064 52.448 58.0597 52.2023 58.0597C51.958 58.0597 51.7399 58.0114 51.5482 57.9148C51.3578 57.8168 51.2016 57.6811 51.0794 57.5078C50.9587 57.3331 50.8813 57.1307 50.8472 56.9006H51.3671C51.414 57.1009 51.507 57.2663 51.6462 57.397C51.7868 57.5263 51.9722 57.5909 52.2023 57.5909C52.539 57.5909 52.8046 57.4439 52.9992 57.1499C53.1952 56.8558 53.2932 56.4403 53.2932 55.9034H53.2591C53.1796 56.0227 53.0851 56.1257 52.9757 56.2124C52.8664 56.299 52.7449 56.3658 52.6114 56.4126C52.4779 56.4595 52.3358 56.483 52.1853 56.483C51.9353 56.483 51.7059 56.4212 51.497 56.2976C51.2897 56.1726 51.1235 56.0014 50.9985 55.7841C50.8749 55.5653 50.8131 55.3153 50.8131 55.0341C50.8131 54.767 50.8728 54.5227 50.9921 54.3011C51.1128 54.0781 51.2818 53.9006 51.4992 53.7685C51.7179 53.6364 51.975 53.5724 52.2705 53.5767ZM52.2705 54.0455C52.0915 54.0455 51.9303 54.0902 51.7868 54.1797C51.6448 54.2678 51.5318 54.3871 51.448 54.5376C51.3657 54.6868 51.3245 54.8523 51.3245 55.0341C51.3245 55.2159 51.3642 55.3814 51.4438 55.5305C51.5247 55.6783 51.6348 55.7962 51.774 55.8842C51.9147 55.9709 52.0745 56.0142 52.2534 56.0142C52.3884 56.0142 52.5141 55.9879 52.6306 55.9354C52.747 55.8814 52.8486 55.8082 52.9353 55.7159C53.0233 55.6222 53.0922 55.5163 53.1419 55.3984C53.1917 55.2791 53.2165 55.1548 53.2165 55.0256C53.2165 54.8551 53.1753 54.6953 53.0929 54.5462C53.012 54.397 52.8997 54.2763 52.7563 54.1839C52.6142 54.0916 52.4523 54.0455 52.2705 54.0455Z" fill="white"/>
<path d="M122.128 36.617C121.593 36.617 121.137 36.4714 120.761 36.1802C120.384 35.8866 120.097 35.4617 119.898 34.9053C119.699 34.3466 119.6 33.6719 119.6 32.8812C119.6 32.0952 119.699 31.424 119.898 30.8677C120.099 30.309 120.388 29.8828 120.764 29.5893C121.143 29.2934 121.598 29.1454 122.128 29.1454C122.658 29.1454 123.112 29.2934 123.488 29.5893C123.867 29.8828 124.156 30.309 124.355 30.8677C124.556 31.424 124.656 32.0952 124.656 32.8812C124.656 33.6719 124.557 34.3466 124.358 34.9053C124.159 35.4617 123.872 35.8866 123.495 36.1802C123.119 36.4714 122.663 36.617 122.128 36.617ZM122.128 35.8357C122.658 35.8357 123.07 35.58 123.364 35.0687C123.657 34.5573 123.804 33.8282 123.804 32.8812C123.804 32.2514 123.737 31.7152 123.602 31.2725C123.469 30.8298 123.277 30.4925 123.027 30.2604C122.778 30.0284 122.478 29.9124 122.128 29.9124C121.603 29.9124 121.192 30.1717 120.896 30.6901C120.6 31.2062 120.452 31.9366 120.452 32.8812C120.452 33.5109 120.518 34.046 120.651 34.4863C120.783 34.9266 120.974 35.2616 121.223 35.4913C121.473 35.7209 121.775 35.8357 122.128 35.8357Z" fill="white"/>
<path d="M134.824 57.6191V64.8918H133.943V58.5424H133.901L132.125 59.7213V58.8265L133.943 57.6191H134.824Z" fill="white"/>
<path d="M128.358 95.4196V94.7804L130.759 92.1526C131.04 91.8448 131.272 91.5773 131.455 91.35C131.637 91.1204 131.772 90.905 131.859 90.7037C131.949 90.5001 131.994 90.2871 131.994 90.0645C131.994 89.8089 131.933 89.5875 131.81 89.4005C131.689 89.2134 131.523 89.069 131.313 88.9672C131.102 88.8654 130.865 88.8145 130.602 88.8145C130.323 88.8145 130.079 88.8725 129.871 88.9885C129.665 89.1022 129.505 89.262 129.391 89.4679C129.28 89.6739 129.225 89.9154 129.225 90.1924H128.386C128.386 89.7662 128.485 89.3922 128.681 89.0702C128.878 88.7482 129.145 88.4973 129.484 88.3174C129.825 88.1374 130.207 88.0475 130.631 88.0475C131.057 88.0475 131.435 88.1374 131.764 88.3174C132.093 88.4973 132.351 88.74 132.538 89.0454C132.725 89.3508 132.818 89.6905 132.818 90.0645C132.818 90.3321 132.77 90.5937 132.673 90.8493C132.578 91.1026 132.412 91.3856 132.176 91.6981C131.941 92.0082 131.616 92.387 131.199 92.8344L129.565 94.5816V94.6384H132.946V95.4196H128.358Z" fill="white"/>
<path d="M113.31 120.842C112.841 120.842 112.423 120.761 112.056 120.6C111.692 120.439 111.402 120.216 111.186 119.929C110.973 119.64 110.857 119.305 110.838 118.924H111.733C111.752 119.158 111.833 119.361 111.975 119.531C112.117 119.699 112.303 119.83 112.532 119.922C112.762 120.014 113.016 120.06 113.296 120.06C113.608 120.06 113.885 120.006 114.127 119.897C114.368 119.788 114.558 119.637 114.695 119.443C114.832 119.248 114.901 119.024 114.901 118.768C114.901 118.5 114.835 118.265 114.702 118.061C114.57 117.855 114.375 117.694 114.12 117.578C113.864 117.462 113.552 117.404 113.182 117.404H112.6V116.623H113.182C113.471 116.623 113.724 116.571 113.942 116.467C114.162 116.363 114.334 116.216 114.457 116.026C114.583 115.837 114.645 115.614 114.645 115.359C114.645 115.113 114.591 114.898 114.482 114.716C114.373 114.534 114.219 114.392 114.02 114.29C113.824 114.188 113.592 114.137 113.324 114.137C113.073 114.137 112.837 114.183 112.614 114.276C112.394 114.366 112.214 114.497 112.074 114.67C111.935 114.84 111.859 115.046 111.847 115.288H110.995C111.009 114.907 111.124 114.573 111.339 114.286C111.555 113.997 111.836 113.773 112.184 113.612C112.535 113.451 112.919 113.37 113.338 113.37C113.788 113.37 114.174 113.461 114.496 113.644C114.818 113.823 115.065 114.061 115.238 114.357C115.411 114.653 115.498 114.973 115.498 115.316C115.498 115.726 115.39 116.075 115.174 116.364C114.961 116.653 114.671 116.853 114.304 116.964V117.021C114.764 117.096 115.122 117.292 115.38 117.607C115.638 117.919 115.767 118.306 115.767 118.768C115.767 119.163 115.66 119.518 115.444 119.833C115.231 120.146 114.94 120.392 114.571 120.572C114.201 120.752 113.781 120.842 113.31 120.842Z" fill="white"/>
<path d="M83.3476 133.264V132.54L86.5436 127.483H87.0692V128.605H86.7141L84.2993 132.426V132.483H88.6033V133.264H83.3476ZM86.7709 134.756V133.044V132.707V127.483H87.6089V134.756H86.7709Z" fill="white"/>
<path d="M55.2684 134.181C54.8517 134.181 54.4765 134.098 54.1427 133.933C53.8089 133.767 53.5413 133.54 53.3401 133.251C53.1389 132.962 53.0288 132.633 53.0099 132.264H53.8621C53.8953 132.593 54.0444 132.865 54.3096 133.08C54.5771 133.293 54.8967 133.4 55.2684 133.4C55.5667 133.4 55.8318 133.33 56.0638 133.19C56.2982 133.051 56.4817 132.859 56.6143 132.615C56.7492 132.369 56.8167 132.091 56.8167 131.781C56.8167 131.463 56.7468 131.181 56.6072 130.932C56.4698 130.681 56.2804 130.483 56.039 130.339C55.7975 130.194 55.5217 130.121 55.2116 130.119C54.989 130.116 54.7606 130.151 54.5262 130.222C54.2918 130.29 54.0989 130.379 53.9474 130.488L53.1235 130.389L53.5638 126.809H57.3422V127.59H54.3025L54.0468 129.735H54.0894C54.2385 129.617 54.4256 129.519 54.6505 129.44C54.8754 129.362 55.1098 129.323 55.3536 129.323C55.7987 129.323 56.1952 129.43 56.5432 129.643C56.8936 129.854 57.1682 130.142 57.3671 130.509C57.5683 130.876 57.6689 131.295 57.6689 131.766C57.6689 132.23 57.5648 132.645 57.3564 133.009C57.1505 133.372 56.8664 133.658 56.5042 133.869C56.142 134.077 55.73 134.181 55.2684 134.181Z" fill="white"/>
<path d="M28.6635 118.983C28.3652 118.978 28.0669 118.921 27.7686 118.812C27.4703 118.703 27.198 118.52 26.9518 118.262C26.7056 118.001 26.5079 117.65 26.3588 117.207C26.2096 116.762 26.1351 116.203 26.1351 115.531C26.1351 114.887 26.1954 114.316 26.3162 113.819C26.4369 113.32 26.6121 112.899 26.8418 112.559C27.0714 112.215 27.3484 111.955 27.6727 111.777C27.9994 111.6 28.3676 111.511 28.7771 111.511C29.1843 111.511 29.5465 111.593 29.8638 111.756C30.1834 111.917 30.4438 112.142 30.645 112.431C30.8462 112.72 30.9765 113.052 31.0356 113.429H30.1692C30.0887 113.102 29.9324 112.831 29.7004 112.615C29.4684 112.4 29.1606 112.292 28.7771 112.292C28.2137 112.292 27.7698 112.537 27.4454 113.027C27.1235 113.517 26.9613 114.205 26.9589 115.09H27.0158C27.1483 114.889 27.3058 114.718 27.4881 114.576C27.6727 114.431 27.8763 114.32 28.0989 114.242C28.3214 114.164 28.557 114.125 28.8055 114.125C29.2222 114.125 29.6034 114.229 29.949 114.437C30.2946 114.643 30.5716 114.928 30.78 115.293C30.9883 115.655 31.0925 116.071 31.0925 116.539C31.0925 116.989 30.9918 117.401 30.7906 117.775C30.5894 118.147 30.3065 118.443 29.9419 118.663C29.5797 118.881 29.1535 118.987 28.6635 118.983ZM28.6635 118.201C28.9618 118.201 29.2293 118.127 29.466 117.978C29.7052 117.828 29.8934 117.628 30.0307 117.377C30.1703 117.126 30.2402 116.847 30.2402 116.539C30.2402 116.239 30.1727 115.965 30.0378 115.719C29.9052 115.47 29.7217 115.273 29.4873 115.126C29.2553 114.979 28.9902 114.906 28.6919 114.906C28.467 114.906 28.2575 114.951 28.0633 115.041C27.8692 115.128 27.6988 115.249 27.552 115.403C27.4076 115.557 27.2939 115.733 27.2111 115.932C27.1282 116.129 27.0868 116.336 27.0868 116.554C27.0868 116.842 27.1543 117.112 27.2892 117.363C27.4265 117.614 27.6135 117.817 27.8503 117.97C28.0894 118.124 28.3605 118.201 28.6635 118.201Z" fill="white"/>
<path d="M10.6251 93.15L13.8779 86.7153V86.6585H10.1279V85.8773H14.787V86.7011L11.5484 93.15H10.6251Z" fill="white"/>
<path d="M10.5339 62.2836C10.0462 62.2836 9.6153 62.1972 9.24124 62.0243C8.86956 61.8492 8.57955 61.6089 8.37122 61.3035C8.16288 60.9957 8.0599 60.6453 8.06227 60.2523C8.0599 59.9446 8.12027 59.6605 8.24337 59.4001C8.36648 59.1373 8.53457 58.9183 8.74764 58.7431C8.96307 58.5655 9.20337 58.4531 9.46852 58.4057V58.3631C9.12051 58.2732 8.84352 58.0778 8.63755 57.7772C8.43158 57.4742 8.32979 57.1297 8.33215 56.7438C8.32979 56.3745 8.4233 56.0442 8.61269 55.753C8.80209 55.4618 9.0625 55.2322 9.39394 55.0641C9.72775 54.896 10.1077 54.812 10.5339 54.812C10.9553 54.812 11.3317 54.896 11.6631 55.0641C11.9946 55.2322 12.255 55.4618 12.4444 55.753C12.6361 56.0442 12.7332 56.3745 12.7356 56.7438C12.7332 57.1297 12.6278 57.4742 12.4195 57.7772C12.2135 58.0778 11.9401 58.2732 11.5992 58.3631V58.4057C11.862 58.4531 12.0987 58.5655 12.3094 58.7431C12.5201 58.9183 12.6882 59.1373 12.8137 59.4001C12.9392 59.6605 13.0031 59.9446 13.0054 60.2523C13.0031 60.6453 12.8965 60.9957 12.6858 61.3035C12.4775 61.6089 12.1875 61.8492 11.8158 62.0243C11.4465 62.1972 11.0192 62.2836 10.5339 62.2836ZM10.5339 61.5023C10.8629 61.5023 11.147 61.4491 11.3861 61.3425C11.6252 61.236 11.8099 61.0857 11.9401 60.8915C12.0703 60.6974 12.1366 60.4701 12.139 60.2097C12.1366 59.9351 12.0656 59.6924 11.9259 59.4817C11.7862 59.271 11.5956 59.1053 11.3542 58.9846C11.1151 58.8638 10.8416 58.8035 10.5339 58.8035C10.2237 58.8035 9.94674 58.8638 9.70289 58.9846C9.46141 59.1053 9.27084 59.271 9.13116 59.4817C8.99385 59.6924 8.92638 59.9351 8.92874 60.2097C8.92638 60.4701 8.98911 60.6974 9.11695 60.8915C9.24716 61.0857 9.43301 61.236 9.67448 61.3425C9.91596 61.4491 10.2024 61.5023 10.5339 61.5023ZM10.5339 58.0506C10.7943 58.0506 11.0251 57.9985 11.2263 57.8944C11.4299 57.7902 11.5897 57.6446 11.7057 57.4576C11.8217 57.2706 11.8809 57.0516 11.8833 56.8006C11.8809 56.5544 11.8229 56.3402 11.7093 56.1579C11.5956 55.9732 11.4382 55.8312 11.237 55.7317C11.0358 55.6299 10.8014 55.579 10.5339 55.579C10.2616 55.579 10.0237 55.6299 9.82008 55.7317C9.61648 55.8312 9.45905 55.9732 9.34778 56.1579C9.23651 56.3402 9.18206 56.5544 9.18443 56.8006C9.18206 57.0516 9.23769 57.2706 9.35133 57.4576C9.46733 57.6446 9.62713 57.7902 9.83073 57.8944C10.0343 57.9985 10.2687 58.0506 10.5339 58.0506Z" fill="white"/>
<path d="M23.4251 26.9791C23.7234 26.9815 24.0217 27.0383 24.32 27.1496C24.6183 27.2609 24.8906 27.4455 25.1368 27.7036C25.383 27.9592 25.5807 28.3084 25.7298 28.7511C25.879 29.1939 25.9535 29.749 25.9535 30.4166C25.9535 31.0629 25.892 31.637 25.7689 32.1389C25.6481 32.6385 25.4729 33.0599 25.2433 33.4031C25.016 33.7464 24.739 34.0068 24.4123 34.1844C24.088 34.3619 23.7211 34.4507 23.3115 34.4507C22.9043 34.4507 22.5409 34.3702 22.2213 34.2092C21.9041 34.0459 21.6436 33.8198 21.44 33.531C21.2388 33.2398 21.1098 32.9024 21.053 32.5189H21.9194C21.9976 32.8527 22.1526 33.1285 22.3846 33.3463C22.619 33.5618 22.928 33.6695 23.3115 33.6695C23.8726 33.6695 24.3153 33.4244 24.6396 32.9344C24.9663 32.4443 25.1297 31.7519 25.1297 30.857H25.0729C24.9403 31.0558 24.7828 31.2275 24.6006 31.3719C24.4183 31.5163 24.2158 31.6276 23.9933 31.7057C23.7708 31.7838 23.534 31.8229 23.2831 31.8229C22.8664 31.8229 22.4841 31.7199 22.1361 31.5139C21.7904 31.3056 21.5134 31.0203 21.3051 30.6581C21.0991 30.2935 20.9961 29.8769 20.9961 29.4081C20.9961 28.963 21.0956 28.5558 21.2944 28.1865C21.4957 27.8148 21.7774 27.5189 22.1396 27.2987C22.5042 27.0786 22.9327 26.972 23.4251 26.9791ZM23.4251 27.7604C23.1268 27.7604 22.8581 27.835 22.619 27.9841C22.3823 28.1309 22.1941 28.3297 22.0544 28.5807C21.9171 28.8293 21.8484 29.1051 21.8484 29.4081C21.8484 29.7111 21.9147 29.9869 22.0473 30.2355C22.1822 30.4817 22.3657 30.6782 22.5977 30.825C22.8321 30.9694 23.0984 31.0416 23.3967 31.0416C23.6216 31.0416 23.8311 30.9978 24.0253 30.9102C24.2194 30.8203 24.3887 30.6984 24.5331 30.5445C24.6799 30.3882 24.7947 30.2118 24.8775 30.0154C24.9604 29.8165 25.0018 29.6093 25.0018 29.3939C25.0018 29.1098 24.9332 28.8435 24.7959 28.5949C24.6609 28.3463 24.4739 28.1451 24.2348 27.9912C23.998 27.8373 23.7282 27.7604 23.4251 27.7604Z" fill="white"/>
<path d="M39.5052 7.74979C49.7365 2.57529 61.0556 -0.081023 72.5206 0.00188234C83.9857 0.0847877 95.2652 2.90451 105.421 8.22643L72 72L39.5052 7.74979Z" fill="white"/>
<circle cx="39.5" cy="44.5" r="3.5" fill="#8F8F8F"/>
<circle cx="31.5" cy="62.5" r="3.5" fill="#8F8F8F"/>
<circle cx="31.5" cy="83.5" r="3.5" fill="#8F8F8F"/>
<circle cx="41.5" cy="102.5" r="3.5" fill="#8F8F8F"/>
<circle cx="60.5" cy="111.5" r="3.5" fill="#8F8F8F"/>
<circle cx="80.5" cy="112.5" r="3.5" fill="#8F8F8F"/>
<circle cx="99.5" cy="104.5" r="3.5" fill="#8F8F8F"/>
<circle cx="111.5" cy="87.5" r="3.5" fill="#8F8F8F"/>
<circle cx="114.5" cy="67.5" r="3.5" fill="#8F8F8F"/>
<circle cx="108.5" cy="50.5" r="3.5" fill="#8F8F8F"/>
</svg>
