<svg xmlns="http://www.w3.org/2000/svg" xmlns:xlink="http://www.w3.org/1999/xlink" width="196" height="97" xmlns:v="https://vecta.io/nano"><defs><path id="A" d="M0 0h7.361v10.247H0z"/><path id="B" d="M0 97h196V0H0z"/><path id="C" d="M11.104 44.528a1.09 1.09 0 0 1-.222-.022.33.33 0 0 1-.18-.102c-.051-.053-.092-.135-.122-.245s-.045-.262-.045-.454c0-.337.045-.568.136-.692s.235-.185.433-.185h2.156a1.22 1.22 0 0 1 .222.02c.069.014.13.049.184.102s.096.135.127.244.049.255.049.442c0 .338-.047.571-.139.7s-.24.194-.444.194h-2.156z"/><path id="D" d="M41.809 44.528a1.09 1.09 0 0 1-.222-.022.33.33 0 0 1-.18-.102c-.051-.053-.092-.135-.122-.245s-.045-.262-.045-.454c0-.337.045-.568.136-.692s.235-.185.433-.185h2.156a1.22 1.22 0 0 1 .222.02c.069.014.13.049.184.102a.59.59 0 0 1 .127.244c.033.108.049.255.049.442 0 .338-.047.571-.139.7s-.24.194-.444.194h-2.156z"/><path id="E" d="M69.408 44.528a1.09 1.09 0 0 1-.222-.022.33.33 0 0 1-.18-.102c-.051-.053-.092-.135-.122-.245s-.045-.262-.045-.454c0-.337.045-.568.136-.692s.235-.185.433-.185h2.156a1.22 1.22 0 0 1 .222.02c.069.014.13.049.184.102a.59.59 0 0 1 .127.244c.033.108.049.255.049.442 0 .338-.047.571-.139.7s-.24.194-.444.194h-2.156z"/><path id="F" d="M75.875 44.528a1.09 1.09 0 0 1-.222-.022.33.33 0 0 1-.18-.102c-.051-.053-.092-.135-.122-.245s-.045-.262-.045-.454c0-.337.045-.568.136-.692s.235-.185.433-.185h2.156a1.22 1.22 0 0 1 .222.02c.069.014.13.049.184.102s.096.135.127.244.049.255.049.442c0 .338-.047.571-.139.7s-.24.194-.444.194h-2.156z"/><path id="G" d="M1.903 59.662a.7.7 0 0 1-.14-.013.21.21 0 0 1-.113-.065c-.033-.034-.058-.086-.076-.155s-.028-.165-.028-.287c0-.212.028-.357.085-.436s.147-.118.273-.118h1.359a.7.7 0 0 1 .14.013.23.23 0 0 1 .116.065c.034.034.061.086.081.153s.031.161.031.278c0 .214-.03.36-.088.442s-.151.122-.28.122h-1.36z"/><path id="H" d="M14.717 59.662a.7.7 0 0 1-.14-.013.21.21 0 0 1-.113-.065c-.033-.034-.058-.086-.076-.155s-.028-.165-.028-.287c0-.212.028-.357.085-.436s.147-.118.273-.118h1.359a.7.7 0 0 1 .14.013.23.23 0 0 1 .116.065c.034.034.061.086.081.153s.031.161.031.278c0 .214-.03.36-.088.442s-.151.122-.28.122h-1.359z"/><path id="I" d="M107.082 58.59a1.51 1.51 0 0 0 .264-.02.37.37 0 0 0 .175-.077.32.32 0 0 0 .096-.166 1.19 1.19 0 0 0 .028-.281v-4.861h1.206v4.755a1.12 1.12 0 0 0 .034.295c.024.083.064.151.12.202s.136.09.235.116a1.6 1.6 0 0 0 .376.037.69.69 0 0 1 .134.013.21.21 0 0 1 .115.065c.031.033.058.085.078.153a.97.97 0 0 1 .031.278c0 .212-.03.36-.088.442s-.148.122-.27.122a2.04 2.04 0 0 1-.278-.019 1.06 1.06 0 0 1-.274-.07c-.089-.036-.172-.085-.249-.149s-.143-.145-.195-.245a.97.97 0 0 1-.271.264 1.27 1.27 0 0 1-.328.143 1.79 1.79 0 0 1-.363.062l-.379.014h-.751a.78.78 0 0 1-.14-.014c-.044-.008-.082-.03-.115-.063a.39.39 0 0 1-.076-.156 1.18 1.18 0 0 1-.028-.285c0-.212.028-.358.085-.436s.148-.118.274-.118h.554z"/></defs><g fill="none" fill-rule="evenodd"><g transform="translate(0 34.281)"><mask id="J" fill="#fff"><use xlink:href="#A"/></mask><path d="M3.362 1.054c0-.145.028-.281.083-.407s.13-.238.225-.334a1.08 1.08 0 0 1 .329-.228A.95.95 0 0 1 4.402 0a.95.95 0 0 1 .401.085 1.03 1.03 0 0 1 .325.228c.093.096.167.208.222.334s.083.262.083.407a1.02 1.02 0 0 1-.083.409 1.11 1.11 0 0 1-.222.333c-.092.097-.201.172-.325.225a.99.99 0 0 1-.401.082c-.144 0-.278-.027-.403-.082s-.235-.128-.329-.225a1.09 1.09 0 0 1-.225-.333 1.02 1.02 0 0 1-.083-.409h0zM1.857 6.388a1.93 1.93 0 0 0 .041.387.92.92 0 0 0 .157.354c.076.106.181.192.315.258s.305.097.513.097l.377-.013a1.58 1.58 0 0 0 .413-.092V5.341h-.735c-.365 0-.636.095-.814.284s-.267.444-.267.763h0zM.977 1.054c0-.145.028-.281.083-.407s.13-.238.226-.334.204-.172.328-.228S1.873 0 2.017 0a.95.95 0 0 1 .401.085 1.05 1.05 0 0 1 .327.228 1.14 1.14 0 0 1 .221.334c.057.126.083.262.083.407s-.027.281-.083.409a1.13 1.13 0 0 1-.221.333c-.093.097-.202.172-.327.225a.99.99 0 0 1-.401.082 1 1 0 0 1-.403-.082c-.124-.053-.233-.128-.328-.225a1.07 1.07 0 0 1-.226-.333 1.02 1.02 0 0 1-.083-.409h0zm4.956 9.193c-.236 0-.464-.017-.683-.053s-.421-.096-.606-.186-.348-.211-.489-.366-.247-.351-.322-.589l-.516.09c-.172.024-.348.036-.523.036-.163 0-.344-.016-.544-.046a3.06 3.06 0 0 1-.614-.162c-.208-.077-.41-.182-.606-.313S.659 8.36.506 8.16.23 7.72.138 7.443 0 6.844 0 6.472c0-.539.095-.995.284-1.37s.434-.681.731-.916a2.84 2.84 0 0 1 .991-.513c.363-.106.721-.159 1.072-.159h2.509v4.428c0 .118.007.214.02.291s.038.14.074.188.085.079.148.097.148.029.25.029h.714a1.22 1.22 0 0 1 .222.02.34.34 0 0 1 .18.102c.051.054.092.135.122.244s.045.255.045.442c0 .338-.045.572-.136.7s-.235.194-.433.194h-.86z" fill="#fff" mask="url(#J)"/></g><g fill="#fff"><path d="M6.793 44.528a1.09 1.09 0 0 1-.222-.022.33.33 0 0 1-.18-.102c-.051-.053-.092-.135-.122-.245s-.045-.262-.045-.454c0-.337.045-.568.136-.692s.235-.185.433-.185h2.156a1.22 1.22 0 0 1 .222.02c.069.014.13.049.184.102a.59.59 0 0 1 .127.244c.033.108.049.255.049.442 0 .338-.047.571-.139.7s-.24.194-.444.194H6.793z"/><path d="M8.948 44.528a1.09 1.09 0 0 1-.222-.022.33.33 0 0 1-.18-.102c-.051-.053-.092-.135-.122-.245s-.045-.262-.045-.454c0-.337.045-.568.136-.692s.235-.185.433-.185h2.156a1.22 1.22 0 0 1 .222.02c.069.014.13.049.184.102a.59.59 0 0 1 .127.244c.033.108.049.255.049.442 0 .338-.047.571-.139.7s-.24.194-.444.194H8.948z"/><use xlink:href="#C"/><use xlink:href="#C" x="2.155"/><use xlink:href="#C" x="4.311"/><path d="M22.776 42.827a5.3 5.3 0 0 0-.187-1.097c-.098-.333-.243-.618-.437-.857a1.9 1.9 0 0 0-.763-.555c-.315-.131-.701-.198-1.163-.198l-.303.014-.426.05-.499.09-.52.133v-1.722l.409-.13.51-.126.575-.099a5.03 5.03 0 0 1 .606-.037c.762 0 1.404.133 1.927.4s.944.625 1.268 1.075a4.38 4.38 0 0 1 .697 1.55 7.79 7.79 0 0 1 .211 1.823v1.385H17.57a1.2 1.2 0 0 1-.222-.02c-.069-.013-.13-.049-.181-.102s-.09-.136-.12-.247-.045-.261-.045-.453c0-.338.045-.569.134-.692s.235-.186.434-.186h5.205zm5.24-1.293c0 .413.09.738.274.976s.454.358.814.358c.401 0 .725-.07.97-.211v-.983c0-.254-.017-.482-.052-.685a1.63 1.63 0 0 0-.17-.52.87.87 0 0 0-.311-.33c-.129-.078-.29-.116-.479-.116a.98.98 0 0 0-.481.109.86.86 0 0 0-.322.305 1.41 1.41 0 0 0-.184.477c-.038.186-.059.394-.059.619h0zm3.971 2.102c0 .688-.074 1.305-.222 1.848s-.401 1.003-.762 1.378-.841.661-1.441.857-1.354.295-2.26.295h-.451v-1.799h.341a5.99 5.99 0 0 0 1.032-.077 3.23 3.23 0 0 0 .742-.214 1.87 1.87 0 0 0 .499-.317c.129-.119.23-.247.305-.38a1.69 1.69 0 0 0 .163-.414 2.48 2.48 0 0 0 .065-.411c-.3.085-.657.128-1.074.128a3.34 3.34 0 0 1-1.098-.176 2.35 2.35 0 0 1-.884-.542 2.57 2.57 0 0 1-.59-.913c-.143-.366-.215-.798-.215-1.3 0-.431.065-.846.195-1.244s.318-.75.568-1.054.56-.548.932-.731.8-.274 1.286-.274c.536 0 .987.092 1.354.277a2.39 2.39 0 0 1 .888.753 3.08 3.08 0 0 1 .481 1.107c.098.421.146.872.146 1.349v1.856zm6.966.892a2.32 2.32 0 0 1-.368-.029 1.15 1.15 0 0 1-.329-.105c-.103-.052-.202-.122-.297-.211s-.184-.202-.267-.337c-.144.158-.297.284-.458.376a2.1 2.1 0 0 1-.502.204c-.174.044-.353.073-.537.085l-.556.017h-2.543v-1.7h2.897c.228 0 .397-.027.51-.077s.17-.146.17-.281c0-.057-.01-.118-.031-.181s-.057-.139-.107-.228l-.201-.327-.312-.475-1.337-2.003 1.733-1.118 1.815 3.009.492.801a4.98 4.98 0 0 0 .36.516 1.35 1.35 0 0 0 .291.278.51.51 0 0 0 .277.085 1.2 1.2 0 0 1 .222.02c.069.013.13.049.181.102s.09.135.12.244.045.255.045.442c0 .338-.045.571-.134.7s-.235.194-.434.194h-.7z"/><use xlink:href="#C" x="28.549"/><use xlink:href="#D"/><use xlink:href="#D" x="2.155"/><path d="M46.12 44.528a1.09 1.09 0 0 1-.222-.022.33.33 0 0 1-.18-.102c-.051-.053-.092-.135-.122-.245s-.045-.262-.045-.454c0-.337.045-.568.136-.692s.235-.185.433-.185h2.156a1.22 1.22 0 0 1 .222.02c.069.014.13.049.184.102a.59.59 0 0 1 .127.244c.033.108.049.255.049.442 0 .338-.047.571-.139.7s-.24.194-.444.194H46.12z"/><use xlink:href="#D" x="6.466"/><path d="M52.108 42.827v-8.576h1.913v10.276H50.43a1.22 1.22 0 0 1-.222-.02.34.34 0 0 1-.18-.102c-.051-.054-.092-.136-.122-.247a1.81 1.81 0 0 1-.045-.453c0-.338.045-.569.136-.692s.235-.186.433-.186h1.678z"/></g><mask id="K" fill="#fff"><use xlink:href="#B"/></mask><g fill="#fff" mask="url(#K)"><path d="M55.754 44.528h1.913V34.252h-1.913zm10.223-9.193c0-.145.028-.281.083-.407a1.09 1.09 0 0 1 .225-.334 1.08 1.08 0 0 1 .329-.228.95.95 0 0 1 .403-.085.95.95 0 0 1 .401.085 1.03 1.03 0 0 1 .325.228 1.12 1.12 0 0 1 .222.334c.055.126.083.262.083.407a1.02 1.02 0 0 1-.083.409 1.11 1.11 0 0 1-.222.333.97.97 0 0 1-.325.225.99.99 0 0 1-.401.082.99.99 0 0 1-.403-.082c-.125-.055-.235-.128-.329-.225a1.09 1.09 0 0 1-.225-.333 1.02 1.02 0 0 1-.083-.409h0zm-1.504 5.334a1.93 1.93 0 0 0 .041.387.92.92 0 0 0 .157.354c.076.106.181.192.315.258s.305.097.513.097l.377-.013a1.58 1.58 0 0 0 .413-.092v-2.039h-.735c-.365 0-.636.095-.814.284s-.267.444-.267.763h0zm-.881-5.334c0-.145.028-.281.083-.407s.13-.238.226-.334a1.1 1.1 0 0 1 .328-.228.97.97 0 0 1 .403-.085.95.95 0 0 1 .401.085 1.05 1.05 0 0 1 .327.228 1.17 1.17 0 0 1 .222.334c.055.126.082.262.082.407a1.02 1.02 0 0 1-.082.409c-.057.126-.13.237-.222.333a.98.98 0 0 1-.327.225.99.99 0 0 1-.401.082 1 1 0 0 1-.403-.082 1.01 1.01 0 0 1-.328-.225 1.07 1.07 0 0 1-.226-.333 1.02 1.02 0 0 1-.083-.409h0zm4.956 9.193a4.21 4.21 0 0 1-.683-.053c-.219-.036-.421-.096-.606-.186a1.6 1.6 0 0 1-.489-.366c-.141-.155-.247-.351-.322-.589l-.516.09a3.8 3.8 0 0 1-.523.036c-.163 0-.344-.016-.544-.046a3.06 3.06 0 0 1-.614-.162 2.91 2.91 0 0 1-.606-.313c-.196-.131-.37-.298-.523-.499s-.276-.44-.368-.717-.139-.599-.139-.971c0-.539.095-.995.284-1.37s.434-.681.731-.916a2.84 2.84 0 0 1 .991-.513c.363-.106.721-.159 1.072-.159h2.509v4.428a1.78 1.78 0 0 0 .02.291.43.43 0 0 0 .074.188c.036.048.085.079.148.097s.148.029.25.029h.714a1.22 1.22 0 0 1 .222.02.34.34 0 0 1 .18.102c.051.054.092.135.122.244s.045.255.045.442c0 .338-.045.572-.136.7s-.235.194-.433.194h-.86z"/><use xlink:href="#E"/><use xlink:href="#E" x="2.156"/><use xlink:href="#E" x="4.311"/><use xlink:href="#F"/><path d="M78.031 44.528a1.09 1.09 0 0 1-.222-.022.33.33 0 0 1-.18-.102c-.051-.053-.092-.135-.122-.245s-.045-.262-.045-.454c0-.337.045-.568.136-.692s.235-.185.433-.185h2.156a1.22 1.22 0 0 1 .222.02c.069.014.13.049.184.102a.59.59 0 0 1 .127.244 1.57 1.57 0 0 1 .049.442c0 .338-.047.571-.139.7s-.24.194-.444.194H78.03z"/><path d="M84.47 39.96c-.346 0-.635.044-.864.133s-.414.181-.557.274l.311.429.36.499.372.482c.122.152.236.278.342.377a1.67 1.67 0 0 0 .358-.32 2.29 2.29 0 0 0 .274-.409c.074-.143.131-.285.172-.426s.062-.259.062-.358a1.04 1.04 0 0 0-.027-.228c-.018-.082-.058-.155-.119-.221s-.144-.122-.253-.165-.253-.067-.433-.067h0zm-3.015 2.867l.649-.02a5.53 5.53 0 0 0 .647-.077l-1.462-1.92c.027-.13.065-.27.113-.414a4.03 4.03 0 0 1 .167-.416l.191-.361c.065-.11.129-.198.194-.264.305-.333.68-.592 1.127-.78a3.68 3.68 0 0 1 1.445-.281c.448 0 .84.059 1.175.176s.611.271.828.463.38.413.489.661.163.502.163.758c0 .169-.03.36-.09.573a3.54 3.54 0 0 1-.26.657c-.113.225-.253.446-.423.661a3.45 3.45 0 0 1-.578.583h2.101c.078 0 .151.007.221.022s.13.049.181.102.09.135.122.242.045.255.045.443c0 .338-.047.571-.139.7s-.236.194-.43.194h-2.101c-.13 0-.267-.011-.413-.032s-.294-.054-.447-.099-.304-.1-.454-.169a2.21 2.21 0 0 1-.42-.248c-.434.163-.861.295-1.278.396s-.852.152-1.301.152h-1.33a1.09 1.09 0 0 1-.222-.022.33.33 0 0 1-.18-.102c-.051-.053-.092-.136-.122-.247s-.045-.261-.045-.453c0-.337.045-.568.134-.692s.235-.186.434-.186h1.268z"/><use xlink:href="#E" x="18.52"/><use xlink:href="#E" x="20.676"/><path d="M92.24 44.528a1.09 1.09 0 0 1-.222-.022.33.33 0 0 1-.18-.102c-.051-.053-.092-.135-.122-.245s-.045-.262-.045-.454c0-.337.045-.568.136-.692s.235-.185.433-.185h2.156a1.22 1.22 0 0 1 .222.02c.069.014.13.049.184.102a.59.59 0 0 1 .127.244c.033.108.049.255.049.442 0 .338-.047.571-.139.7s-.24.194-.444.194H92.24z"/><use xlink:href="#E" x="24.987"/><path d="M96.551 44.528a1.09 1.09 0 0 1-.222-.022.33.33 0 0 1-.18-.102c-.051-.053-.092-.135-.122-.245s-.045-.262-.045-.454c0-.337.045-.568.136-.692s.235-.185.433-.185h2.156a1.22 1.22 0 0 1 .222.02c.069.014.13.049.184.102a.59.59 0 0 1 .127.244 1.57 1.57 0 0 1 .049.442c0 .338-.047.571-.139.7s-.24.194-.444.194H96.55z"/><path d="M104.189 41.766a1.93 1.93 0 0 0-.052-.443 1.26 1.26 0 0 0-.17-.409.97.97 0 0 0-.301-.294c-.121-.075-.271-.113-.448-.113-.12 0-.246.039-.377.116s-.26.196-.387.358a3.05 3.05 0 0 0-.36.612c-.113.245-.212.538-.294.874a3.23 3.23 0 0 0 .674.334c.241.087.489.13.739.13.308 0 .55-.09.721-.271s.256-.479.256-.896h0zm-5.233 1.061a1.18 1.18 0 0 0 .353-.049.81.81 0 0 0 .303-.176 1.35 1.35 0 0 0 .266-.354 4.45 4.45 0 0 0 .257-.588c.222-.605.464-1.095.728-1.472s.536-.671.817-.882.567-.353.852-.426a3.43 3.43 0 0 1 .831-.109 2.73 2.73 0 0 1 1.062.208c.332.138.622.335.869.593s.444.573.59.946.218.79.218 1.254a3.93 3.93 0 0 1-.167 1.177 2.59 2.59 0 0 1-.498.928 2.27 2.27 0 0 1-.833.608c-.334.145-.718.218-1.158.218a4.26 4.26 0 0 1-1.185-.172c-.397-.115-.811-.317-1.241-.608a1.79 1.79 0 0 1-.385.337c-.127.08-.256.14-.387.179s-.269.065-.41.075l-.447.014h-.686a1.09 1.09 0 0 1-.222-.022c-.069-.014-.13-.049-.181-.102s-.09-.136-.12-.247a1.74 1.74 0 0 1-.045-.453c0-.337.045-.568.134-.692s.235-.186.434-.186h.249zm12.157.808c0 .338-.047.571-.139.7s-.236.194-.43.194h-.623a3.54 3.54 0 0 1-.912-.109 1.79 1.79 0 0 1-.714-.366 1.68 1.68 0 0 1-.468-.69c-.11-.288-.167-.648-.167-1.078v-8.034h1.913v7.773a1.58 1.58 0 0 0 .045.419c.031.106.075.186.131.242a.43.43 0 0 0 .219.113 1.46 1.46 0 0 0 .305.027h.27a1.06 1.06 0 0 1 .215.022.34.34 0 0 1 .18.102.61.61 0 0 1 .126.242c.031.108.048.255.048.443"/><use xlink:href="#E" x="41.123"/><use xlink:href="#E" x="43.278"/><use xlink:href="#E" x="45.434"/><use xlink:href="#E" x="47.589"/><use xlink:href="#F" x="43.278"/><path d="M123.61 46.988c0-.145.027-.281.079-.409a1.03 1.03 0 0 1 .222-.33 1.14 1.14 0 0 1 .329-.225.97.97 0 0 1 .403-.085.97.97 0 0 1 .401.085c.124.056.235.132.329.225a1.06 1.06 0 0 1 .225.33 1.02 1.02 0 0 1 .083.409c0 .145-.028.281-.083.407a1.09 1.09 0 0 1-.225.334 1.08 1.08 0 0 1-.329.228.95.95 0 0 1-.401.085.95.95 0 0 1-.403-.085 1.08 1.08 0 0 1-.329-.228c-.095-.096-.168-.208-.222-.334s-.079-.262-.079-.407h0zm2.904-4.16a5.1 5.1 0 0 0-.187-1.097 2.42 2.42 0 0 0-.437-.857 1.91 1.91 0 0 0-.762-.556c-.315-.13-.703-.196-1.165-.196l-.301.014-.427.049-.499.092-.52.133v-1.722l.41-.13.509-.126.575-.099a4.75 4.75 0 0 1 .606-.039c.762 0 1.405.133 1.927.4s.944.626 1.268 1.077.556.966.697 1.55.212 1.191.212 1.823v1.385h-7.112a1.1 1.1 0 0 1-.222-.022.33.33 0 0 1-.18-.102c-.051-.053-.092-.135-.122-.245a1.8 1.8 0 0 1-.045-.454c0-.337.045-.568.136-.692s.235-.185.433-.185h5.205zM3.837 76.133a1.98 1.98 0 0 0 .79-.151 1.62 1.62 0 0 0 .592-.424c.16-.183.283-.406.368-.668s.126-.555.126-.88v-5.287h1.811v5.287a4.15 4.15 0 0 1-.256 1.484c-.171.452-.416.84-.734 1.165a3.37 3.37 0 0 1-1.158.766c-.454.184-.968.275-1.539.275s-1.086-.092-1.542-.275a3.31 3.31 0 0 1-1.161-.766c-.318-.325-.563-.714-.734-1.165a4.15 4.15 0 0 1-.257-1.484v-5.287h1.811v5.287c0 .325.042.619.127.88s.206.485.368.668a1.63 1.63 0 0 0 .591.424 2 2 0 0 0 .797.151m12.914-7.411v8.879h-.936a.8.8 0 0 1-.355-.07.85.85 0 0 1-.284-.242l-4.363-5.63.027.423.008.386v5.134H9.25v-8.879h.954c.075 0 .141.003.195.01a.47.47 0 0 1 .148.042.56.56 0 0 1 .126.089 1.14 1.14 0 0 1 .133.148l4.394 5.654-.037-.45-.011-.413v-5.079h1.599zm1.835 8.879h1.822v-8.879h-1.822zm11.32-8.879l-3.524 8.879h-1.641l-3.524-8.879h1.46a.61.61 0 0 1 .383.113.68.68 0 0 1 .221.291l1.894 5.115.215.628.197.712.171-.712.202-.628 1.883-5.115a.69.69 0 0 1 .213-.278c.101-.083.23-.126.385-.126h1.466zm2.631 1.438v2.284h2.921v1.388h-2.921v2.332h3.753v1.438h-5.576v-8.879h5.576v1.438zm7.845 2.766c.294 0 .547-.037.761-.113a1.39 1.39 0 0 0 .524-.313 1.23 1.23 0 0 0 .303-.467 1.69 1.69 0 0 0 .096-.588c0-.42-.139-.747-.413-.979s-.696-.348-1.258-.348h-.942v2.808h.929zm4.242 4.675h-1.636c-.305 0-.527-.118-.663-.354l-1.667-2.724a.69.69 0 0 0-.226-.232c-.082-.049-.204-.073-.365-.073h-.615v3.383h-1.811v-8.879h2.752c.611 0 1.134.065 1.568.194s.792.307 1.069.535a2.05 2.05 0 0 1 .609.817c.128.315.194.664.194 1.044 0 .294-.041.572-.124.836a2.48 2.48 0 0 1-.359.72c-.157.215-.349.407-.58.575a3 3 0 0 1-.783.403 1.8 1.8 0 0 1 .325.237c.1.092.191.201.271.327l2.04 3.194zm5.601-7.177a.74.74 0 0 1-.172.205c-.057.043-.133.065-.226.065a.55.55 0 0 1-.286-.095l-.36-.205a3.23 3.23 0 0 0-.469-.205c-.176-.063-.385-.096-.622-.096-.418 0-.732.096-.942.285s-.314.437-.314.743a.7.7 0 0 0 .172.487c.115.129.264.239.452.334s.399.176.636.251l.731.241a6.52 6.52 0 0 1 .729.31 2.58 2.58 0 0 1 .638.447 2.07 2.07 0 0 1 .452.657c.116.258.171.575.171.946 0 .404-.069.781-.208 1.135s-.339.661-.601.923-.584.47-.968.621a3.53 3.53 0 0 1-1.306.228 4.17 4.17 0 0 1-.83-.086 4.74 4.74 0 0 1-.796-.239 4.32 4.32 0 0 1-.721-.367c-.225-.143-.423-.301-.592-.477l.532-.869a.54.54 0 0 1 .174-.162.45.45 0 0 1 .23-.065c.109 0 .223.042.344.122l.417.27c.157.099.338.188.546.27s.455.122.745.122c.423 0 .749-.097.981-.292s.346-.489.346-.876c0-.224-.057-.406-.171-.545a1.42 1.42 0 0 0-.45-.348 3.49 3.49 0 0 0-.635-.242l-.729-.224a6.08 6.08 0 0 1-.731-.292 2.27 2.27 0 0 1-.633-.453 2.14 2.14 0 0 1-.45-.698c-.115-.278-.172-.622-.172-1.034a2.48 2.48 0 0 1 .194-.96 2.44 2.44 0 0 1 .567-.827c.25-.241.557-.434.92-.582s.782-.219 1.253-.219a4.18 4.18 0 0 1 1.463.248c.448.166.828.394 1.138.688l-.447.863zm1.907 7.177h1.822v-8.879h-1.822zm9.854-7.398h-2.559v7.399H57.61v-7.399h-2.559v-1.481h6.934zm5.05 3.984v3.415h-1.811v-3.415l-3.179-5.465h1.593c.157 0 .283.037.376.113s.171.172.226.291l1.438 2.797.262.526c.079.162.148.325.208.489l.197-.492.25-.523 1.425-2.797c.048-.099.12-.191.216-.275s.222-.129.375-.129h1.606l-3.181 5.465zm12.957-1.028c0-.466-.061-.882-.181-1.251s-.295-.684-.522-.942a2.24 2.24 0 0 0-.827-.593c-.324-.138-.691-.205-1.101-.205s-.779.067-1.104.205-.604.334-.83.593a2.67 2.67 0 0 0-.523.942 4.04 4.04 0 0 0-.181 1.251 4.07 4.07 0 0 0 .181 1.257 2.62 2.62 0 0 0 .523.939 2.26 2.26 0 0 0 .83.591c.327.137.694.205 1.104.205s.778-.067 1.101-.205a2.25 2.25 0 0 0 .827-.591 2.63 2.63 0 0 0 .522-.939c.12-.368.181-.788.181-1.257m1.852 0c0 .648-.107 1.25-.322 1.805a4.21 4.21 0 0 1-.912 1.438c-.392.404-.864.721-1.415.952s-1.162.345-1.834.345-1.284-.115-1.835-.345-1.023-.548-1.418-.952a4.2 4.2 0 0 1-.915-1.438c-.215-.555-.322-1.157-.322-1.805s.107-1.25.322-1.802.52-1.032.915-1.435.867-.721 1.418-.952 1.162-.345 1.835-.345 1.284.115 1.834.345a4.19 4.19 0 0 1 1.415.955c.392.406.697.886.912 1.438s.322 1.151.322 1.796m3.15-2.999v2.454h3.15v1.444h-3.15v3.544h-1.822v-8.879h5.576v1.438zm13.572 2.999a4.06 4.06 0 0 0-.181-1.254c-.12-.371-.294-.685-.519-.942a2.25 2.25 0 0 0-.824-.593c-.324-.139-.691-.209-1.101-.209h-1.545v6.004h1.545c.41 0 .778-.069 1.101-.205a2.25 2.25 0 0 0 .824-.593c.225-.259.399-.575.519-.945a4.1 4.1 0 0 0 .181-1.262m1.859 0c0 .648-.107 1.246-.324 1.791a4.08 4.08 0 0 1-.91 1.403c-.393.391-.864.698-1.415.917s-1.163.331-1.835.331h-3.367v-8.879h3.367c.671 0 1.284.11 1.835.331a4.14 4.14 0 0 1 1.415.92c.392.394.696.862.91 1.405a4.76 4.76 0 0 1 .324 1.78m7.941 0c0-.466-.061-.882-.181-1.251s-.295-.684-.522-.942a2.24 2.24 0 0 0-.827-.593c-.324-.138-.691-.205-1.101-.205s-.779.067-1.104.205-.604.334-.83.593a2.67 2.67 0 0 0-.523.942 4.04 4.04 0 0 0-.181 1.251 4.07 4.07 0 0 0 .181 1.257 2.62 2.62 0 0 0 .523.939 2.26 2.26 0 0 0 .83.591c.327.137.694.205 1.104.205s.778-.067 1.101-.205a2.25 2.25 0 0 0 .827-.591 2.63 2.63 0 0 0 .522-.939c.12-.368.181-.788.181-1.257m1.852 0c0 .648-.107 1.25-.322 1.805a4.21 4.21 0 0 1-.912 1.438c-.392.404-.864.721-1.415.952s-1.162.345-1.834.345-1.284-.115-1.835-.345-1.023-.548-1.418-.952a4.2 4.2 0 0 1-.915-1.438c-.215-.555-.322-1.157-.322-1.805s.107-1.25.322-1.802.52-1.032.915-1.435.867-.721 1.418-.952 1.162-.345 1.835-.345 1.284.115 1.834.345a4.19 4.19 0 0 1 1.415.955c.392.406.697.886.912 1.438s.322 1.151.322 1.796m8.829-4.437v8.879h-1.822v-3.825h-3.856v3.825h-1.822v-8.879h1.822v3.769h3.856v-3.769zm6.456 5.508l-.947-2.717-.178-.502-.178-.625-.178.634-.178.505-.942 2.705h2.601zm3.042 3.372h-1.407a.61.61 0 0 1-.383-.113.67.67 0 0 1-.221-.291l-.591-1.694h-3.489l-.591 1.694c-.04.103-.11.195-.211.28a.58.58 0 0 1-.38.125h-1.418l3.421-8.879h1.852l3.417 8.879zM1.793 85.147v2.099h2.528v.862H1.793v2.737H.739v-6.557H4.77v.86zm8.967 2.418a3.2 3.2 0 0 0-.15-1.015c-.1-.301-.245-.556-.431-.766s-.414-.37-.68-.483-.567-.168-.899-.168a2.29 2.29 0 0 0-.893.168 1.93 1.93 0 0 0-.683.483 2.17 2.17 0 0 0-.435.766 3.15 3.15 0 0 0-.153 1.015c0 .376.051.72.153 1.021a2.15 2.15 0 0 0 .435.763c.188.208.417.367.683.477s.564.166.893.166.632-.056.899-.166a1.87 1.87 0 0 0 .68-.477c.187-.208.331-.463.431-.763s.15-.641.15-1.021m1.073 0c0 .486-.078.933-.233 1.343a3.11 3.11 0 0 1-.657 1.059c-.282.296-.623.528-1.019.694s-.838.251-1.323.251-.92-.085-1.318-.251a3.02 3.02 0 0 1-1.022-.694c-.285-.295-.503-.649-.66-1.059s-.233-.857-.233-1.343.078-.933.233-1.343.376-.763.66-1.061a3.02 3.02 0 0 1 1.022-.697 3.38 3.38 0 0 1 1.318-.249c.483 0 .926.083 1.323.249s.737.4 1.019.697a3.13 3.13 0 0 1 .657 1.061c.155.41.233.857.233 1.343m3.027-.137c.239 0 .45-.03.629-.089s.329-.142.448-.248a1.04 1.04 0 0 0 .27-.38c.061-.146.089-.311.089-.49 0-.358-.116-.631-.349-.819s-.587-.282-1.06-.282h-.854v2.308h.827zm3.044 3.415h-.937c-.187 0-.321-.072-.404-.218l-1.508-2.209a.5.5 0 0 0-.167-.163c-.059-.033-.15-.05-.27-.05h-.584v2.641h-1.05v-6.557h1.904c.426 0 .792.044 1.098.132a2.08 2.08 0 0 1 .756.377 1.48 1.48 0 0 1 .438.585 1.99 1.99 0 0 1 .141.76 1.95 1.95 0 0 1-.102.638 1.81 1.81 0 0 1-.291.538c-.127.161-.284.3-.469.419a2.35 2.35 0 0 1-.633.278c.129.079.239.189.332.333l1.746 2.499zm6.398-5.436c-.033.054-.068.095-.103.12s-.081.039-.134.039a.34.34 0 0 1-.191-.073l-.262-.162c-.103-.059-.225-.113-.365-.163a1.51 1.51 0 0 0-.503-.075 1.54 1.54 0 0 0-.474.067.94.94 0 0 0-.344.192.78.78 0 0 0-.209.29.92.92 0 0 0-.069.361c0 .168.042.305.13.416a1.09 1.09 0 0 0 .344.285c.141.079.304.148.486.208l.56.188.558.228a1.89 1.89 0 0 1 .488.324 1.48 1.48 0 0 1 .344.477c.087.187.13.417.13.688a2.25 2.25 0 0 1-.148.82c-.099.255-.242.477-.428.667s-.417.34-.691.449a2.52 2.52 0 0 1-.936.163 2.91 2.91 0 0 1-.605-.062 3.07 3.07 0 0 1-.561-.173 2.7 2.7 0 0 1-.5-.27 2.53 2.53 0 0 1-.417-.356l.305-.51c.027-.042.061-.076.103-.1s.088-.036.139-.036a.38.38 0 0 1 .229.097l.304.214a2.31 2.31 0 0 0 .428.215c.168.065.368.097.602.097.379 0 .674-.095.882-.282s.312-.447.312-.778c0-.185-.044-.335-.131-.453a1.04 1.04 0 0 0-.344-.294 2.42 2.42 0 0 0-.486-.201l-.557-.175a5.27 5.27 0 0 1-.557-.219 1.78 1.78 0 0 1-.488-.327 1.53 1.53 0 0 1-.342-.502c-.088-.198-.131-.446-.131-.744a1.81 1.81 0 0 1 .137-.688 1.77 1.77 0 0 1 .4-.589c.175-.172.392-.31.649-.411a2.35 2.35 0 0 1 .879-.155 2.87 2.87 0 0 1 1.022.176c.31.117.577.288.802.506l-.256.51zm6.008 3.975c.057 0 .106.023.148.069l.417.459c-.263.323-.587.571-.97.745s-.841.261-1.374.261c-.472 0-.901-.082-1.282-.248a2.79 2.79 0 0 1-.975-.692c-.27-.295-.478-.648-.622-1.058s-.218-.86-.218-1.353a3.82 3.82 0 0 1 .23-1.353c.154-.411.372-.766.652-1.061a2.93 2.93 0 0 1 1.005-.691c.392-.163.821-.245 1.291-.245s.879.076 1.237.229.669.358.932.614l-.345.496c-.024.033-.052.062-.085.086s-.079.037-.136.037-.127-.029-.204-.085a3.04 3.04 0 0 0-.293-.186c-.117-.069-.266-.13-.444-.188s-.4-.085-.667-.085a2.15 2.15 0 0 0-.848.165 1.83 1.83 0 0 0-.664.477 2.21 2.21 0 0 0-.434.766c-.103.3-.154.642-.154 1.024s.054.73.161 1.032.256.558.444.766a1.93 1.93 0 0 0 .666.476c.253.109.527.163.821.163.18 0 .341-.01.482-.03a2 2 0 0 0 .393-.095 1.87 1.87 0 0 0 .339-.166 2.15 2.15 0 0 0 .317-.247c.059-.054.12-.082.18-.082m1.478 1.461h1.055v-6.557h-1.055zm6.627-.86l-.004.86h-4.032v-6.557h4.032v.862h-2.977v1.975h2.379v.834h-2.379v2.026zm6.488-5.696v6.557h-.534c-.081 0-.15-.014-.206-.043a.53.53 0 0 1-.163-.143l-3.551-4.628.02.262.007.239v4.312h-.925v-6.557h.547a.84.84 0 0 1 .115.007.33.33 0 0 1 .088.024c.027.011.052.03.076.054a.78.78 0 0 1 .076.092l3.557 4.63-.02-.278-.007-.255v-4.275h.92zm6.03 5.095c.057 0 .106.023.148.069l.417.459c-.263.323-.587.571-.97.745s-.841.261-1.374.261c-.472 0-.901-.082-1.282-.248a2.79 2.79 0 0 1-.975-.692c-.27-.295-.478-.648-.622-1.058s-.218-.86-.218-1.353a3.82 3.82 0 0 1 .23-1.353c.154-.411.372-.766.652-1.061a2.93 2.93 0 0 1 1.005-.691c.392-.163.821-.245 1.291-.245s.879.076 1.237.229.669.358.932.614l-.345.496c-.024.033-.052.062-.085.086s-.079.037-.136.037-.127-.029-.204-.085a3.04 3.04 0 0 0-.293-.186c-.117-.069-.266-.13-.444-.188s-.4-.085-.667-.085a2.15 2.15 0 0 0-.848.165 1.83 1.83 0 0 0-.664.477 2.21 2.21 0 0 0-.434.766c-.103.3-.154.642-.154 1.024s.054.73.161 1.032.256.558.444.766a1.93 1.93 0 0 0 .666.476c.253.109.527.163.821.163.18 0 .341-.01.482-.03a2 2 0 0 0 .393-.095 1.87 1.87 0 0 0 .339-.166 2.15 2.15 0 0 0 .317-.247c.059-.054.12-.082.18-.082m5.515.601l-.004.86h-4.032v-6.557h4.032v.862h-2.977v1.975h2.379v.834h-2.379v2.026zm4.755-2.281a1.71 1.71 0 0 0-.611.573 1.36 1.36 0 0 0-.198.711 1.17 1.17 0 0 0 .096.48 1.11 1.11 0 0 0 .256.357 1.13 1.13 0 0 0 .369.224c.139.052.284.077.433.077.297 0 .567-.052.809-.153a2.21 2.21 0 0 0 .647-.411l-1.801-1.858zm4.248 3.142h-.939a.96.96 0 0 1-.137-.01.44.44 0 0 1-.112-.03.36.36 0 0 1-.099-.056.76.76 0 0 1-.102-.096l-.539-.556a3.28 3.28 0 0 1-.967.602 3.1 3.1 0 0 1-1.175.218 2.08 2.08 0 0 1-.721-.128 2 2 0 0 1-.63-.366 1.86 1.86 0 0 1-.45-.583 1.73 1.73 0 0 1-.17-.776c0-.209.033-.407.1-.592a1.96 1.96 0 0 1 .283-.518 2.32 2.32 0 0 1 .43-.43 2.79 2.79 0 0 1 .543-.328c-.171-.231-.295-.454-.373-.674a1.97 1.97 0 0 1-.116-.664 1.71 1.71 0 0 1 .12-.638c.08-.201.199-.376.353-.523a1.69 1.69 0 0 1 .561-.354c.219-.086.469-.129.748-.129a1.85 1.85 0 0 1 .68.118c.202.079.375.186.52.32a1.51 1.51 0 0 1 .342.459 1.56 1.56 0 0 1 .146.538l-.611.128c-.054.013-.105.006-.151-.022s-.081-.073-.105-.138a1.1 1.1 0 0 0-.103-.235.87.87 0 0 0-.167-.206c-.067-.06-.144-.11-.236-.148a.82.82 0 0 0-.315-.057c-.139 0-.262.023-.37.069s-.202.109-.278.189a.82.82 0 0 0-.175.28c-.041.106-.061.219-.061.341a1.25 1.25 0 0 0 .031.282 1.14 1.14 0 0 0 .103.274c.048.09.109.183.182.28a3.55 3.55 0 0 0 .267.307l1.783 1.864a3.29 3.29 0 0 0 .256-.626 3.67 3.67 0 0 0 .126-.658c.006-.065.027-.115.062-.153s.083-.057.144-.057h.597a3.78 3.78 0 0 1-.168 1.097 3.91 3.91 0 0 1-.459.976l1.351 1.412zm7.233-5.67h-2.016v5.67h-1.046v-5.67h-2.02v-.887h5.082zm4.934 4.809l-.004.86h-4.032v-6.557h4.032v.862h-2.977v1.975h2.379v.834h-2.379v2.026zm5.488-.601c.057 0 .106.023.148.069l.417.459c-.263.323-.587.571-.97.745s-.841.261-1.374.261c-.472 0-.901-.082-1.282-.248a2.79 2.79 0 0 1-.975-.692c-.27-.295-.478-.648-.622-1.058s-.218-.86-.218-1.353a3.82 3.82 0 0 1 .23-1.353c.154-.411.372-.766.652-1.061a2.93 2.93 0 0 1 1.005-.691c.392-.163.821-.245 1.291-.245s.879.076 1.237.229.669.358.932.614l-.345.496c-.024.033-.052.062-.085.086s-.079.037-.136.037-.127-.029-.204-.085a3.04 3.04 0 0 0-.293-.186c-.117-.069-.266-.13-.444-.188s-.4-.085-.667-.085a2.15 2.15 0 0 0-.848.165 1.83 1.83 0 0 0-.664.477 2.21 2.21 0 0 0-.434.766c-.103.3-.154.642-.154 1.024s.054.73.161 1.032.256.558.444.766a1.93 1.93 0 0 0 .666.476c.253.109.527.163.821.163.18 0 .341-.01.482-.03a2 2 0 0 0 .393-.095 1.87 1.87 0 0 0 .339-.166 2.15 2.15 0 0 0 .317-.247c.059-.054.12-.082.18-.082m6.829-5.095v6.557h-1.05v-2.919h-3.247v2.919h-1.055v-6.557h1.055v2.869h3.247v-2.869zm6.893 0v6.557h-.534c-.081 0-.15-.014-.206-.043a.53.53 0 0 1-.163-.143l-3.551-4.628.02.262.007.239v4.312h-.925v-6.557h.547a.84.84 0 0 1 .115.007.33.33 0 0 1 .088.024c.027.011.052.03.076.054a.78.78 0 0 1 .076.092l3.557 4.63-.02-.278-.007-.255v-4.275h.92zm6.542 3.278a3.2 3.2 0 0 0-.15-1.015c-.1-.301-.245-.556-.431-.766s-.414-.37-.68-.483-.567-.168-.899-.168a2.29 2.29 0 0 0-.893.168 1.93 1.93 0 0 0-.683.483 2.17 2.17 0 0 0-.435.766 3.15 3.15 0 0 0-.153 1.015c0 .376.051.72.153 1.021a2.15 2.15 0 0 0 .435.763c.188.208.417.367.683.477s.564.166.893.166.632-.056.899-.166a1.87 1.87 0 0 0 .68-.477c.187-.208.331-.463.431-.763s.15-.641.15-1.021m1.073 0c0 .486-.078.933-.233 1.343a3.11 3.11 0 0 1-.657 1.059c-.282.296-.623.528-1.019.694s-.838.251-1.323.251-.92-.085-1.318-.251a3.02 3.02 0 0 1-1.022-.694c-.285-.295-.503-.649-.66-1.059s-.233-.857-.233-1.343.078-.933.233-1.343.376-.763.66-1.061a3.02 3.02 0 0 1 1.022-.697 3.38 3.38 0 0 1 1.318-.249c.483 0 .926.083 1.323.249s.737.4 1.019.697a3.13 3.13 0 0 1 .657 1.061c.155.41.233.857.233 1.343m4.885 2.386v.892h-3.736v-6.556h1.052v5.664zm5.644-2.386a3.2 3.2 0 0 0-.15-1.015c-.1-.301-.245-.556-.431-.766s-.414-.37-.68-.483-.567-.168-.899-.168a2.29 2.29 0 0 0-.893.168 1.93 1.93 0 0 0-.683.483 2.17 2.17 0 0 0-.435.766 3.15 3.15 0 0 0-.153 1.015c0 .376.051.72.153 1.021a2.15 2.15 0 0 0 .435.763c.188.208.417.367.683.477s.564.166.893.166.632-.056.899-.166a1.87 1.87 0 0 0 .68-.477c.187-.208.331-.463.431-.763s.15-.641.15-1.021m1.073 0c0 .486-.078.933-.233 1.343a3.11 3.11 0 0 1-.657 1.059c-.282.296-.623.528-1.019.694s-.838.251-1.323.251-.92-.085-1.318-.251a3.02 3.02 0 0 1-1.022-.694c-.285-.295-.503-.649-.66-1.059s-.233-.857-.233-1.343.078-.933.233-1.343.376-.763.66-1.061a3.02 3.02 0 0 1 1.022-.697 3.38 3.38 0 0 1 1.318-.249c.483 0 .926.083 1.323.249s.737.4 1.019.697a3.13 3.13 0 0 1 .657 1.061c.155.41.233.857.233 1.343m6.444.05v2.596c-.643.47-1.392.705-2.245.705-.524 0-.998-.083-1.421-.248a3.15 3.15 0 0 1-1.084-.692 3.04 3.04 0 0 1-.693-1.059c-.161-.409-.242-.86-.242-1.352s.078-.948.233-1.359a3.03 3.03 0 0 1 .669-1.061 3.01 3.01 0 0 1 1.05-.688c.411-.162.872-.242 1.384-.242.26 0 .502.02.725.06a3.31 3.31 0 0 1 .622.172 2.87 2.87 0 0 1 .53.264 2.96 2.96 0 0 1 .444.345l-.301.487c-.048.076-.109.123-.184.14s-.156 0-.242-.054l-.277-.163a2.46 2.46 0 0 0-.77-.285 3.13 3.13 0 0 0-.582-.047 2.39 2.39 0 0 0-.923.171c-.274.115-.509.277-.703.487s-.345.467-.45.767a3.05 3.05 0 0 0-.157 1.006 3.1 3.1 0 0 0 .165 1.049c.11.308.269.571.472.784s.45.377.738.489a2.67 2.67 0 0 0 .968.169 2.68 2.68 0 0 0 .711-.087c.208-.057.413-.138.614-.241v-1.302h-.903c-.068 0-.122-.02-.161-.057s-.058-.087-.058-.148v-.606h2.07zm3.695.66v2.569h-1.046v-2.569l-2.362-3.988h.92c.093 0 .167.022.221.069a.53.53 0 0 1 .134.172l1.325 2.35.164.337.133.314a2.68 2.68 0 0 1 .122-.317l.161-.334 1.316-2.35a.55.55 0 0 1 .13-.166.32.32 0 0 1 .219-.075h.926l-2.362 3.988zM2.27 59.099c0 .212-.03.36-.088.442s-.148.122-.27.122H1.52a2.25 2.25 0 0 1-.575-.069 1.13 1.13 0 0 1-.45-.231 1.05 1.05 0 0 1-.295-.434c-.07-.182-.105-.409-.105-.68v-5.065h1.206v4.9c0 .109.01.198.028.264a.33.33 0 0 0 .083.153c.037.036.082.059.137.072a.96.96 0 0 0 .192.017h.171a.68.68 0 0 1 .134.013.21.21 0 0 1 .115.065c.031.033.058.085.078.153a.97.97 0 0 1 .031.278"/><use xlink:href="#G"/><use xlink:href="#G" x="1.359"/><path d="M4.621 59.662a.7.7 0 0 1-.14-.013.21.21 0 0 1-.113-.065c-.033-.034-.058-.086-.076-.155s-.028-.165-.028-.287c0-.212.028-.357.085-.436s.147-.118.273-.118H5.98a.7.7 0 0 1 .14.013.23.23 0 0 1 .116.065c.034.034.061.086.081.153s.031.161.031.278c0 .214-.03.36-.088.442s-.151.122-.28.122H4.621z"/><path d="M5.98 59.662a.7.7 0 0 1-.14-.013.21.21 0 0 1-.113-.065c-.033-.034-.058-.086-.076-.155s-.028-.165-.028-.287c0-.212.028-.357.085-.436s.147-.118.273-.118H7.34a.7.7 0 0 1 .14.013.23.23 0 0 1 .116.065c.034.034.061.086.081.153s.031.161.031.278c0 .214-.03.36-.088.442s-.151.122-.28.122H5.98z"/><use xlink:href="#G" x="5.435"/><path d="M10.44 61.231a.62.62 0 0 1 .052-.257.69.69 0 0 1 .141-.209.71.71 0 0 1 .208-.14.61.61 0 0 1 .253-.054.61.61 0 0 1 .254.054c.078.034.147.082.205.14a.71.71 0 0 1 .14.209.62.62 0 0 1 .052.257.62.62 0 0 1-.052.257.72.72 0 0 1-.14.211.65.65 0 0 1-.205.143.61.61 0 0 1-.254.053c-.089 0-.174-.017-.253-.053s-.147-.083-.208-.143-.106-.13-.141-.211a.62.62 0 0 1-.052-.257m-1.503 0a.62.62 0 0 1 .052-.257.69.69 0 0 1 .141-.209.71.71 0 0 1 .208-.14.61.61 0 0 1 .253-.054.61.61 0 0 1 .254.054c.078.034.147.082.205.14a.71.71 0 0 1 .14.209c.034.079.052.165.052.257s-.018.178-.052.257a.72.72 0 0 1-.14.211.65.65 0 0 1-.205.143.61.61 0 0 1-.254.053c-.089 0-.174-.017-.253-.053s-.147-.083-.208-.143-.106-.13-.141-.211a.62.62 0 0 1-.052-.257m3.062-1.568c-.093 0-.188-.006-.284-.017s-.189-.036-.281-.069a1 1 0 0 1-.26-.146c-.082-.065-.153-.148-.213-.251a.86.86 0 0 1-.263.264 1.28 1.28 0 0 1-.329.143 1.81 1.81 0 0 1-.368.062l-.373.014h-.93c-.049 0-.096-.004-.14-.014s-.082-.03-.113-.063-.058-.086-.078-.155a1.18 1.18 0 0 1-.027-.287c0-.212.027-.357.085-.436s.147-.118.273-.118h.734a1.52 1.52 0 0 0 .264-.02c.071-.013.13-.039.175-.077a.32.32 0 0 0 .096-.166c.018-.072.028-.166.028-.281v-2.104h1.196v1.998a.94.94 0 0 0 .042.301.41.41 0 0 0 .136.201c.062.053.146.09.249.113s.23.036.382.036c.047 0 .092.004.136.013s.082.03.113.065.058.085.079.153.031.161.031.278c0 .214-.03.36-.088.442s-.148.122-.271.122"/><path d="M12 59.662a.7.7 0 0 1-.14-.013.21.21 0 0 1-.113-.065c-.033-.034-.058-.086-.076-.155s-.028-.165-.028-.287c0-.212.028-.357.085-.436s.147-.118.273-.118h1.359a.7.7 0 0 1 .14.013.23.23 0 0 1 .116.065c.034.034.061.086.081.153s.031.161.031.278c0 .214-.03.36-.088.442s-.151.122-.28.122H12z"/><path d="M13.359 59.662a.7.7 0 0 1-.14-.013.21.21 0 0 1-.113-.065c-.033-.034-.058-.086-.076-.155s-.028-.165-.028-.287c0-.212.028-.357.085-.436s.147-.118.273-.118h1.359a.7.7 0 0 1 .14.013.23.23 0 0 1 .116.065c.034.034.061.086.081.153s.031.161.031.278c0 .214-.03.36-.088.442s-.151.122-.28.122H13.36z"/><use xlink:href="#H"/><path d="M17.526 61.213c0-.092.017-.178.051-.257s.079-.149.14-.209.129-.106.206-.14a.61.61 0 0 1 .254-.054.61.61 0 0 1 .253.054.71.71 0 0 1 .208.14.69.69 0 0 1 .141.209.62.62 0 0 1 .052.257.62.62 0 0 1-.052.257c-.035.08-.082.151-.141.211s-.13.109-.208.143-.164.053-.253.053a.61.61 0 0 1-.254-.053.67.67 0 0 1-.206-.143.62.62 0 0 1-.14-.211c-.034-.079-.051-.165-.051-.257h0zm1.831-2.622c-.017-.252-.057-.483-.117-.692s-.154-.39-.276-.54a1.21 1.21 0 0 0-.481-.35 1.9 1.9 0 0 0-.734-.125 3.03 3.03 0 0 0-.191.01l-.269.03-.314.057-.328.085V55.98l.257-.082.321-.08.363-.062a3.1 3.1 0 0 1 .382-.024c.481 0 .885.085 1.214.252a2.19 2.19 0 0 1 .8.678c.204.284.351.609.438.976s.134.751.134 1.15v.873h-4.483a.7.7 0 0 1-.14-.013c-.044-.009-.081-.03-.113-.065a.35.35 0 0 1-.076-.155c-.02-.069-.028-.165-.028-.285 0-.214.028-.358.085-.437s.147-.116.273-.116h3.281zm3.302-.816c0 .284.062.49.185.621s.291.195.5.195h.612v-.727a2.49 2.49 0 0 0-.033-.419 1.09 1.09 0 0 0-.107-.331c-.049-.092-.116-.162-.201-.214a.59.59 0 0 0-.315-.077.59.59 0 0 0-.293.069.53.53 0 0 0-.198.195.97.97 0 0 0-.115.301 1.79 1.79 0 0 0-.037.387h0zm2.456 1.888c-.044.335-.117.641-.221.912a1.77 1.77 0 0 1-.476.694c-.213.191-.499.337-.854.439s-.807.152-1.354.152h-.284v-1.134h.213c.368 0 .663-.033.888-.097s.399-.148.523-.249a.83.83 0 0 0 .26-.341 1.7 1.7 0 0 0 .099-.374h-.573a2.59 2.59 0 0 1-.752-.103 1.48 1.48 0 0 1-.587-.327c-.165-.151-.293-.347-.385-.589s-.137-.538-.137-.886c0-.254.041-.503.124-.747a2.01 2.01 0 0 1 .362-.649 1.78 1.78 0 0 1 .588-.456c.233-.116.5-.172.803-.172.338 0 .623.059.855.176a1.45 1.45 0 0 1 .561.499c.143.214.245.469.308.766a4.79 4.79 0 0 1 .093.982v.434h.585a.7.7 0 0 1 .14.013.2.2 0 0 1 .113.065.37.37 0 0 1 .076.153 1.03 1.03 0 0 1 .03.278c0 .212-.03.36-.086.442s-.147.122-.273.122h-.642z"/><use xlink:href="#H" x="11.04"/><use xlink:href="#H" x="12.399"/><use xlink:href="#H" x="13.757"/><use xlink:href="#H" x="15.116"/><use xlink:href="#H" x="16.475"/><path d="M33.608 58.59v-5.406h1.206v6.478h-2.263a.78.78 0 0 1-.14-.014c-.044-.008-.081-.03-.113-.063a.35.35 0 0 1-.076-.156c-.018-.07-.028-.165-.028-.285 0-.212.028-.358.085-.436s.148-.118.273-.118h1.057zm3.416-.815c0 .284.062.49.185.621s.291.195.5.195h.612v-.727a2.49 2.49 0 0 0-.033-.419 1.09 1.09 0 0 0-.107-.331c-.049-.092-.116-.162-.201-.214a.59.59 0 0 0-.315-.077.59.59 0 0 0-.293.069.53.53 0 0 0-.198.195.97.97 0 0 0-.115.301 1.79 1.79 0 0 0-.037.387h0zm2.456 1.888c-.044.335-.117.641-.221.912a1.77 1.77 0 0 1-.476.694c-.213.191-.499.337-.854.439s-.807.152-1.354.152h-.284v-1.134h.213c.368 0 .663-.033.888-.097s.399-.148.523-.249a.83.83 0 0 0 .26-.341 1.7 1.7 0 0 0 .099-.374h-.573a2.59 2.59 0 0 1-.752-.103 1.48 1.48 0 0 1-.587-.327c-.165-.151-.293-.347-.385-.589s-.137-.538-.137-.886c0-.254.041-.503.124-.747a2.01 2.01 0 0 1 .362-.649 1.78 1.78 0 0 1 .588-.456c.233-.116.5-.172.803-.172.338 0 .623.059.855.176a1.45 1.45 0 0 1 .561.499c.143.214.245.469.308.766a4.79 4.79 0 0 1 .093.982v.434h.585a.7.7 0 0 1 .14.013.2.2 0 0 1 .113.065.37.37 0 0 1 .076.153 1.03 1.03 0 0 1 .03.278c0 .212-.03.36-.086.442s-.147.122-.273.122h-.642z"/><use xlink:href="#H" x="25.405"/><use xlink:href="#G" x="39.577"/><path d="M42.839 59.662a.7.7 0 0 1-.14-.013.21.21 0 0 1-.113-.065c-.033-.034-.058-.086-.076-.155s-.028-.165-.028-.287c0-.212.028-.357.085-.436s.147-.118.273-.118h1.359a.7.7 0 0 1 .14.013.23.23 0 0 1 .116.065c.034.034.061.086.081.153s.031.161.031.278c0 .214-.03.36-.088.442s-.151.122-.28.122H42.84z"/><path d="M45.259 54.328a.62.62 0 0 1 .052-.257c.035-.08.082-.151.143-.211a.7.7 0 0 1 .206-.145.63.63 0 0 1 .508 0c.078.036.147.085.205.145a.72.72 0 0 1 .14.211.62.62 0 0 1 .052.257.62.62 0 0 1-.052.257.72.72 0 0 1-.14.211c-.058.06-.127.108-.205.142a.63.63 0 0 1-.253.05.63.63 0 0 1-.254-.05c-.078-.034-.147-.082-.206-.142s-.107-.13-.143-.211a.62.62 0 0 1-.052-.257h0zm-.508 4.262c.106 0 .194-.007.264-.02a.36.36 0 0 0 .175-.077.31.31 0 0 0 .096-.166c.018-.072.028-.166.028-.281v-2.104h1.206v1.998c0 .118.011.218.035.301s.064.149.12.201a.51.51 0 0 0 .233.113c.099.024.223.036.372.036.047 0 .092.004.136.013s.081.03.113.065.058.085.079.153a1.03 1.03 0 0 1 .03.278c0 .212-.028.36-.088.442s-.148.122-.27.122a1.92 1.92 0 0 1-.271-.019 1.08 1.08 0 0 1-.262-.067.93.93 0 0 1-.245-.148c-.079-.063-.15-.146-.215-.249-.078.112-.168.199-.27.264s-.212.11-.328.143a1.78 1.78 0 0 1-.365.062l-.377.014h-.752c-.049 0-.096-.006-.14-.014s-.082-.03-.113-.063-.058-.086-.076-.156-.028-.165-.028-.285c0-.212.028-.358.085-.436s.147-.118.273-.118h.554z"/><use xlink:href="#H" x="32.565"/><use xlink:href="#H" x="33.924"/><path d="M49.999 59.662a.7.7 0 0 1-.14-.013.21.21 0 0 1-.113-.065c-.033-.034-.058-.086-.076-.155s-.028-.165-.028-.287c0-.212.028-.357.085-.436s.147-.118.273-.118h1.359a.7.7 0 0 1 .14.013.23.23 0 0 1 .116.065c.034.034.061.086.081.153s.031.161.031.278c0 .214-.03.36-.088.442s-.151.122-.28.122H50z"/><use xlink:href="#H" x="36.641"/><use xlink:href="#H" x="38"/><use xlink:href="#H" x="39.359"/><path d="M58.951 59.153c-.061.07-.131.138-.212.199s-.172.116-.277.162-.223.082-.356.108-.28.042-.444.042h-2.228c-.049 0-.096-.006-.14-.014s-.081-.03-.113-.063-.058-.086-.076-.156-.028-.165-.028-.285c0-.212.028-.358.085-.437s.148-.116.273-.116h2.094c.185 0 .322-.034.41-.102s.131-.171.131-.307c0-.112-.051-.242-.151-.391s-.24-.304-.42-.463-.39-.318-.635-.476a6.54 6.54 0 0 0-.8-.437v-1.303l3.164-1.7v1.396l-1.795.882v.03c.334.209.611.407.827.593s.393.363.527.529.235.325.305.477.123.294.161.429c.038.142.082.265.134.371s.109.192.177.261a.66.66 0 0 0 .237.158c.092.034.199.053.321.053a.75.75 0 0 1 .144.013c.044.009.082.03.113.065a.33.33 0 0 1 .075.152c.018.069.027.162.027.28 0 .212-.028.36-.086.442s-.147.122-.273.122a3.55 3.55 0 0 1-.3-.014 1.29 1.29 0 0 1-.298-.063c-.099-.034-.197-.086-.293-.153a1.36 1.36 0 0 1-.28-.28"/><use xlink:href="#H" x="45.405"/><use xlink:href="#H" x="46.764"/><path d="M62.839 59.662a.7.7 0 0 1-.14-.013.21.21 0 0 1-.113-.065c-.033-.034-.058-.086-.076-.155s-.028-.165-.028-.287c0-.212.028-.357.085-.436s.147-.118.273-.118h1.359a.7.7 0 0 1 .14.013.23.23 0 0 1 .116.065c.034.034.061.086.081.153s.031.161.031.278c0 .214-.03.36-.088.442s-.151.122-.28.122H62.84z"/><use xlink:href="#H" x="49.481"/><use xlink:href="#H" x="50.84"/><use xlink:href="#H" x="52.199"/><use xlink:href="#H" x="53.557"/><path d="M71.376 54.328a.62.62 0 0 1 .052-.257c.035-.08.082-.151.141-.211s.13-.109.208-.145a.63.63 0 0 1 .508 0 .68.68 0 0 1 .205.145.72.72 0 0 1 .14.211.62.62 0 0 1 .052.257.62.62 0 0 1-.052.257.72.72 0 0 1-.14.211.64.64 0 0 1-.205.142.63.63 0 0 1-.254.05.63.63 0 0 1-.253-.05.69.69 0 0 1-.208-.142c-.059-.06-.106-.13-.141-.211a.62.62 0 0 1-.052-.257h0zm-1.503 0a.62.62 0 0 1 .052-.257c.035-.08.082-.151.141-.211s.13-.109.208-.145a.63.63 0 0 1 .508 0 .68.68 0 0 1 .205.145.72.72 0 0 1 .14.211c.034.079.052.165.052.257s-.018.178-.052.257a.72.72 0 0 1-.14.211.64.64 0 0 1-.205.142.63.63 0 0 1-.254.05.63.63 0 0 1-.253-.05.69.69 0 0 1-.208-.142c-.059-.06-.106-.13-.141-.211a.62.62 0 0 1-.052-.257h0zm.314 4.262a1.48 1.48 0 0 0 .264-.02.36.36 0 0 0 .175-.077.32.32 0 0 0 .096-.166 1.19 1.19 0 0 0 .028-.281v-2.104h1.206v1.998c0 .118.011.218.035.301a.43.43 0 0 0 .12.201.51.51 0 0 0 .233.113c.099.024.223.036.372.036a.68.68 0 0 1 .134.013.21.21 0 0 1 .115.065c.031.033.058.085.078.153a.97.97 0 0 1 .031.278c0 .212-.03.36-.088.442s-.148.122-.27.122a1.92 1.92 0 0 1-.271-.019 1.08 1.08 0 0 1-.262-.067.93.93 0 0 1-.245-.148c-.079-.063-.151-.146-.215-.249a.95.95 0 0 1-.27.264 1.23 1.23 0 0 1-.328.143 1.81 1.81 0 0 1-.365.062l-.379.014h-.751a.78.78 0 0 1-.14-.014c-.044-.008-.082-.03-.113-.063s-.058-.086-.078-.156-.027-.165-.027-.285c0-.212.027-.358.085-.436s.147-.118.273-.118h.554z"/><use xlink:href="#H" x="58"/><use xlink:href="#H" x="59.359"/><use xlink:href="#H" x="60.718"/><use xlink:href="#H" x="62.076"/><path d="M79.209 58.59v-5.406h1.206v6.478h-2.263a.78.78 0 0 1-.14-.014c-.044-.008-.081-.03-.113-.063a.35.35 0 0 1-.076-.156c-.018-.07-.028-.165-.028-.285 0-.212.028-.358.085-.436s.148-.118.273-.118h1.057zm2.298 1.072h1.206v-6.477h-1.206zm3.416-1.887c0 .259.058.466.172.616s.287.225.513.225c.253 0 .458-.043.612-.133v-.619a2.65 2.65 0 0 0-.033-.431 1.06 1.06 0 0 0-.107-.328.53.53 0 0 0-.197-.208.58.58 0 0 0-.301-.073.62.62 0 0 0-.304.069c-.083.044-.151.109-.204.192a.93.93 0 0 0-.116.301c-.024.119-.037.248-.037.39h0zm2.504 1.325a4.45 4.45 0 0 1-.14 1.165c-.093.342-.253.632-.481.869s-.53.416-.909.54-.854.185-1.424.185h-.284v-1.134h.213a3.75 3.75 0 0 0 .652-.049 1.94 1.94 0 0 0 .467-.135c.129-.057.233-.125.315-.199a.96.96 0 0 0 .192-.239 1.1 1.1 0 0 0 .103-.261 1.67 1.67 0 0 0 .041-.259c-.189.053-.416.08-.677.08a2.09 2.09 0 0 1-.693-.112 1.45 1.45 0 0 1-.557-.341c-.157-.153-.281-.345-.372-.575s-.134-.505-.134-.82a2.51 2.51 0 0 1 .122-.784 2 2 0 0 1 .359-.664 1.73 1.73 0 0 1 .587-.462 1.82 1.82 0 0 1 .81-.172c.338 0 .623.057.855.173a1.48 1.48 0 0 1 .558.475c.141.2.243.431.304.698a3.8 3.8 0 0 1 .092.85v1.17zm7.27-1.179c0-.1-.014-.198-.044-.291s-.072-.175-.129-.245a.64.64 0 0 0-.212-.171.63.63 0 0 0-.288-.065.64.64 0 0 0-.276.065.76.76 0 0 0-.253.206 1.28 1.28 0 0 0-.205.367c-.058.151-.099.334-.123.549a1.68 1.68 0 0 0 .24.14 1.9 1.9 0 0 0 .252.099c.083.027.163.047.24.06a1.28 1.28 0 0 0 .208.02c.174 0 .317-.057.426-.171s.164-.302.164-.565m-2.14 1.297c-.123.047-.233.109-.331.185a.91.91 0 0 0-.246.297 1.51 1.51 0 0 0-.153.449 3.31 3.31 0 0 0-.054.638v2.588h-1.204V60.77c0-.378.025-.704.078-.978a2.32 2.32 0 0 1 .252-.711c.115-.201.264-.373.45-.518a3.38 3.38 0 0 1 .67-.399c.044-.284.109-.533.195-.748a2.71 2.71 0 0 1 .297-.561c.112-.158.235-.29.368-.394s.267-.189.404-.254a1.73 1.73 0 0 1 .406-.135 1.91 1.91 0 0 1 .376-.04c.288 0 .546.05.773.151a1.76 1.76 0 0 1 .577.404c.157.168.277.364.358.589a2.07 2.07 0 0 1 .123.708c0 .275-.038.528-.112.758a1.71 1.71 0 0 1-.329.598 1.48 1.48 0 0 1-.54.391c-.215.093-.459.14-.737.14-.522 0-1.062-.185-1.62-.555m5.437-1.441c0 .284.062.49.185.621s.291.195.5.195h.612v-.727a2.49 2.49 0 0 0-.033-.419 1.09 1.09 0 0 0-.107-.331c-.049-.092-.116-.162-.201-.214a.59.59 0 0 0-.315-.077.59.59 0 0 0-.293.069.53.53 0 0 0-.198.195.97.97 0 0 0-.115.301 1.79 1.79 0 0 0-.037.387h0zm2.456 1.888c-.044.335-.117.641-.221.912a1.77 1.77 0 0 1-.476.694c-.213.191-.499.337-.854.439s-.807.152-1.354.152h-.284v-1.134h.213c.368 0 .663-.033.888-.097s.399-.148.523-.249a.83.83 0 0 0 .26-.341 1.7 1.7 0 0 0 .099-.374h-.573a2.59 2.59 0 0 1-.752-.103 1.48 1.48 0 0 1-.587-.327c-.165-.151-.293-.347-.385-.589s-.137-.538-.137-.886c0-.254.041-.503.124-.747a2.01 2.01 0 0 1 .362-.649 1.78 1.78 0 0 1 .588-.456c.233-.116.5-.172.803-.172.338 0 .623.059.855.176a1.45 1.45 0 0 1 .561.499c.143.214.245.469.308.766a4.79 4.79 0 0 1 .093.982v.434h.585a.7.7 0 0 1 .14.013.2.2 0 0 1 .113.065.37.37 0 0 1 .076.153 1.03 1.03 0 0 1 .03.278c0 .212-.03.36-.086.442s-.147.122-.273.122h-.642z"/><use xlink:href="#H" x="86.375"/><use xlink:href="#H" x="87.734"/><use xlink:href="#H" x="89.093"/><use xlink:href="#H" x="90.452"/><use xlink:href="#I"/><use xlink:href="#H" x="94.899"/><use xlink:href="#H" x="96.258"/><use xlink:href="#H" x="97.616"/><use xlink:href="#H" x="98.975"/><path d="M117.751 56.783c-.218 0-.4.027-.544.083a1.97 1.97 0 0 0-.351.173l.197.27.226.315.235.304a2.01 2.01 0 0 0 .216.237 1.06 1.06 0 0 0 .225-.202 1.38 1.38 0 0 0 .172-.257c.047-.09.083-.179.109-.268s.04-.163.04-.227a.68.68 0 0 0-.017-.143.31.31 0 0 0-.075-.139.44.44 0 0 0-.16-.105c-.068-.027-.158-.042-.273-.042h0zm-1.9 1.808l.409-.014c.144-.009.28-.024.409-.049l-.922-1.208c.017-.083.041-.171.072-.261a2.15 2.15 0 0 1 .105-.262l.12-.228c.041-.07.081-.125.122-.166.192-.209.43-.373.71-.492a2.34 2.34 0 0 1 .912-.176 2.23 2.23 0 0 1 .741.11 1.53 1.53 0 0 1 .522.292 1.19 1.19 0 0 1 .308.416 1.2 1.2 0 0 1 .102.479 1.34 1.34 0 0 1-.057.361 2.29 2.29 0 0 1-.164.414 2.42 2.42 0 0 1-.266.416 2.18 2.18 0 0 1-.365.368h1.323c.049 0 .096.004.14.013a.21.21 0 0 1 .115.065c.031.033.057.085.075.153a1.03 1.03 0 0 1 .03.278c0 .212-.03.36-.088.442s-.148.122-.271.122h-1.323c-.082 0-.168-.007-.26-.02a1.92 1.92 0 0 1-.281-.063c-.096-.027-.192-.063-.287-.106a1.33 1.33 0 0 1-.264-.156 6.7 6.7 0 0 1-.806.249c-.263.063-.537.096-.819.096h-.84c-.049 0-.096-.006-.14-.014s-.081-.03-.113-.063-.058-.086-.076-.156-.028-.165-.028-.285c0-.212.028-.358.085-.436s.148-.118.273-.118h.8z"/><use xlink:href="#H" x="105.214"/><use xlink:href="#H" x="106.572"/><use xlink:href="#I" x="16.121"/><path d="M126.794 58.59v-5.406H128v6.478h-2.263a.78.78 0 0 1-.14-.014c-.044-.008-.081-.03-.113-.063a.35.35 0 0 1-.076-.156c-.018-.07-.028-.165-.028-.285 0-.212.028-.358.085-.436s.148-.118.273-.118h1.057zm14.115-40.136v28.304l17.893 15.544V18.454l-5.875 5.158v26.516l-6.008-5.042V23.612zM158.802 97V68.696l-17.893-15.544V97l5.875-5.158V65.326l6.008 5.042v21.475zm17.549-51.913l-6.01 5.042V23.612h6.01v21.475zm-11.885-26.633v43.847l17.894-15.544V18.454h-17.894zm-29.701-4.24h55.014V8.938h-55.014zm55.015-8.939h-55.014L128.546 0h67.455zm-25.314 63.421V97l6.01-5.159V70.366l6.008-5.04v17.673l5.875 5.159V53.152l-17.893 15.544zm12.018 23.145L182.359 97v-6.669l-5.875-5.167v6.676z"/></g></g></svg>